<svg width="309" height="146" viewBox="0 0 309 146" fill="none" xmlns="http://www.w3.org/2000/svg">
<g clip-path="url(#clip0_2638_34362)" filter="url(#filter0_d_2638_34362)">
<path d="M67.947 15.3345C67.6852 15.3345 67.4343 15.1881 67.3144 14.9386C66.9381 14.1629 66.7908 13.3872 66.8672 12.6386C67.2653 8.80908 73.2367 6.89972 77.5995 5.50567C82.2021 4.03568 87.0775 3.18949 92.0837 2.99421C92.4545 2.96709 92.7981 3.27628 92.8144 3.66683C92.8308 4.05195 92.5254 4.37741 92.1382 4.39368C87.2574 4.58354 82.513 5.40261 78.0303 6.83463C74.491 7.96831 68.5632 9.86139 68.2632 12.7851C68.2142 13.2787 68.3178 13.7994 68.5795 14.3419C68.7486 14.689 68.6014 15.1067 68.2523 15.2749C68.1542 15.3237 68.0506 15.3454 67.947 15.3454V15.3345Z" fill="#408F95"/>
<path d="M146.601 19.6144C146.601 19.6144 146.546 19.6144 146.519 19.6144C145.39 19.4842 144.261 19.251 143.165 18.9147C141.709 18.4699 140.624 17.9274 140.166 17.6996L140.013 17.6237C135.045 15.2261 129.919 13.013 124.782 11.0548C120.054 9.25395 116.313 7.82736 111.284 6.57977C105.978 5.26708 100.481 4.45886 94.9516 4.18764C94.5644 4.16594 94.2645 3.84049 94.2863 3.45536C94.3081 3.07023 94.6298 2.7719 95.0225 2.79359C100.645 3.07023 106.229 3.8893 111.628 5.22911C116.743 6.4984 120.512 7.93584 125.289 9.75299C130.464 11.7274 135.628 13.9514 140.629 16.3652L140.798 16.4466C141.267 16.6798 142.243 17.168 143.585 17.5803C144.599 17.8895 145.641 18.1064 146.688 18.2258C147.075 18.2692 147.348 18.6163 147.304 18.996C147.266 19.354 146.961 19.6144 146.606 19.6144H146.601Z" fill="#408F95"/>
<path d="M80.9259 27.7074C80.8169 27.7074 80.7078 27.6803 80.6042 27.6314C79.399 27.0076 77.5994 26.053 75.8925 25.0332C75.4398 24.762 74.5946 24.2629 73.5039 23.5307C73.1712 23.3083 72.8113 23.0642 72.4405 22.793C71.1098 21.8491 69.8228 20.8239 68.6067 19.7499C68.574 19.7174 68.5413 19.6848 68.514 19.6468C68.454 19.5709 68.3613 19.457 68.2414 19.316C67.0089 17.8297 65.8473 16.2838 66.3327 15.1772C66.4854 14.8246 66.8616 14.3961 67.7669 14.3473C68.1596 14.3202 68.4868 14.6185 68.5086 15.0036C68.5304 15.3888 68.2359 15.7196 67.8487 15.7413C67.7342 15.7468 67.6633 15.763 67.6197 15.7739C67.6197 16.0234 67.876 16.6797 69.3266 18.4264C69.4356 18.5566 69.5229 18.665 69.5883 18.7464C70.7554 19.7716 71.9878 20.748 73.2585 21.6538C73.6239 21.9142 73.9674 22.1475 74.2892 22.3699C75.3471 23.0804 76.1706 23.5686 76.6123 23.8344C78.292 24.8325 80.0589 25.7763 81.2477 26.3893C81.5913 26.5683 81.7276 26.9859 81.5476 27.3331C81.4222 27.5718 81.1768 27.7128 80.9259 27.7128V27.7074Z" fill="#408F95"/>
<path d="M108.886 31.7811C102.025 31.7811 95.4377 31.0108 95.3559 31C91.2168 30.4847 87.0395 29.7253 82.9495 28.7435C82.5732 28.6513 82.3387 28.277 82.4314 27.9027C82.5241 27.5284 82.9004 27.2952 83.2767 27.3874C87.3176 28.3584 91.4404 29.1069 95.525 29.6114C95.6122 29.6222 104.888 30.7071 112.807 30.284C115.261 30.1538 117.753 29.8555 120.207 29.389C121.303 29.1829 121.898 29.0364 124.39 28.4343L127.406 27.702C128.393 27.4633 129.254 27.2464 130.018 27.0565C132.297 26.487 133.802 26.1073 135.264 26.0042C137.429 25.8523 139.637 26.0367 141.819 26.5575C142.195 26.6443 142.43 27.024 142.337 27.3983C142.25 27.7725 141.873 28.0058 141.492 27.9136C139.447 27.4308 137.385 27.2572 135.362 27.3983C134.02 27.4905 132.641 27.8376 130.361 28.4126C129.592 28.6079 128.725 28.8248 127.738 29.0635L124.722 29.7958C122.263 30.3925 121.603 30.5552 120.469 30.7668C117.955 31.2387 115.403 31.5479 112.883 31.6835C111.569 31.754 110.222 31.7811 108.886 31.7811Z" fill="#408F95"/>
<path d="M148.81 19.6632C148.51 19.6632 148.232 19.4679 148.139 19.1696C148.024 18.8007 148.232 18.4102 148.602 18.2963C150.239 17.7972 158.768 15.2478 165.797 14.2172C169.227 13.7127 171.741 13.6639 174.479 14.0436C175.373 14.1684 176.268 14.3419 177.14 14.5535C177.516 14.6457 177.745 15.0254 177.653 15.3997C177.56 15.774 177.184 16.0072 176.802 15.9096C175.979 15.7089 175.128 15.5461 174.277 15.4268C171.681 15.0634 169.282 15.1122 165.993 15.595C159.068 16.6147 150.626 19.1316 149.006 19.6306C148.935 19.6523 148.87 19.6632 148.799 19.6632H148.81Z" fill="#408F95"/>
<path d="M169.009 45.0489C168.96 45.0489 168.911 45.0489 168.862 45.0327C165.72 44.36 160.376 41.7727 158.424 39.9881C156.739 38.735 155.392 37.7424 154.246 36.8962C150.282 33.9725 148.64 32.7683 143.432 28.4071C143.138 28.1576 143.1 27.7183 143.345 27.4253C143.596 27.1324 144.038 27.0945 144.332 27.3386C149.507 31.6672 151.138 32.8713 155.081 35.7734C156.237 36.625 157.595 37.623 159.296 38.8923C159.318 38.9086 159.334 38.9249 159.356 38.9412C161.112 40.5685 166.244 43.0419 169.162 43.6657C169.543 43.7471 169.783 44.116 169.701 44.4957C169.631 44.8211 169.341 45.0489 169.014 45.0489H169.009Z" fill="#408F95"/>
<path d="M169.01 45.0489C168.824 45.0489 168.633 44.973 168.497 44.8265C166.67 42.8901 164.325 39.63 163.545 35.0953C163.311 33.7392 162.765 30.566 164.047 26.9589C165.22 23.6663 167.265 21.7624 169.631 19.5547C171.709 17.6182 174.07 15.9583 176.655 14.6131C176.999 14.4341 177.424 14.5643 177.604 14.906C177.784 15.2478 177.653 15.6708 177.31 15.8499C174.839 17.1354 172.582 18.7247 170.597 20.5744C168.273 22.7387 166.436 24.4528 165.378 27.4253C164.216 30.6908 164.718 33.6145 164.936 34.8621C165.656 39.0551 167.832 42.0764 169.528 43.8719C169.795 44.1539 169.779 44.5933 169.495 44.8591C169.359 44.9838 169.184 45.0489 169.015 45.0489H169.01Z" fill="#408F95"/>
<path d="M159.21 23.2269C159.003 23.2269 158.801 23.1401 158.665 22.9666C158.419 22.6682 158.468 22.2289 158.768 21.9848C159.962 21.0247 161.271 20.2056 162.656 19.5601C164.325 18.779 166.097 18.242 167.924 17.9599C168.306 17.9003 168.666 18.1606 168.726 18.5457C168.786 18.9255 168.524 19.2835 168.137 19.3431C166.441 19.6035 164.8 20.1025 163.251 20.8294C161.969 21.4315 160.753 22.1855 159.646 23.0805C159.515 23.1835 159.363 23.2378 159.204 23.2378L159.21 23.2269Z" fill="#408F95"/>
<path d="M162.084 38.3879C161.936 38.3879 161.784 38.3391 161.653 38.2415C160.137 37.0752 157.443 34.5638 156.483 30.8427C156.188 29.6927 155.567 27.2952 156.652 24.8488C156.805 24.5071 156.985 24.1708 157.186 23.8562C157.399 23.5307 157.83 23.4385 158.157 23.65C158.484 23.8616 158.577 24.2901 158.364 24.6156C158.201 24.8651 158.054 25.1363 157.934 25.4129C157.045 27.4199 157.563 29.4215 157.841 30.501C158.697 33.8206 161.135 36.088 162.509 37.1403C162.814 37.3736 162.874 37.8129 162.634 38.1221C162.498 38.3011 162.291 38.3933 162.078 38.3933L162.084 38.3879Z" fill="#408F95"/>
<path d="M92.891 23.3951C92.7437 23.3951 92.5965 23.3951 92.4438 23.3842C89.2536 23.2486 86.9959 21.719 85.9324 20.8185C85.638 20.569 85.5998 20.1296 85.8506 19.8367C86.1015 19.5438 86.5432 19.5058 86.8377 19.7554C87.7648 20.5419 89.7335 21.8708 92.4983 21.9902C95.2741 22.1041 97.161 20.9487 98.4098 20.1785C99.0915 19.7554 99.3532 19.5004 99.4405 19.3865C99.2333 19.1533 98.3389 18.7464 95.4377 18.2311C92.831 17.7701 90.0879 17.6562 87.2849 17.8948C86.8977 17.9219 86.5596 17.6453 86.5269 17.2602C86.4941 16.8751 86.7777 16.5387 87.1649 16.5062C90.0879 16.2567 92.9564 16.376 95.6831 16.8588C98.3498 17.3307 100.755 17.8786 100.869 19.3214C100.924 19.9778 100.406 20.5907 99.146 21.3664C97.8972 22.1366 95.8467 23.3951 92.8855 23.3951H92.891Z" fill="#408F95"/>
<path d="M80.5553 24.4095C80.3099 24.4095 80.07 24.2793 79.9391 24.0515C79.7482 23.7152 79.8736 23.2867 80.2117 23.1022C82.3658 21.9143 84.16 20.325 85.5506 18.3939C86.2868 17.3687 86.9031 16.2513 87.3721 15.0688C87.5138 14.7108 87.9228 14.5372 88.2828 14.6783C88.6427 14.8193 88.8172 15.2261 88.6754 15.5841C88.1573 16.8697 87.492 18.0902 86.6904 19.2021C85.1798 21.3068 83.2275 23.0317 80.8934 24.3227C80.7844 24.3824 80.6698 24.4095 80.5553 24.4095Z" fill="#408F95"/>
<path d="M74.1039 10.5503C74.2075 9.94277 74.7856 9.53594 75.3909 9.63901C76.0017 9.74207 76.4107 10.317 76.3071 10.9191C76.2035 11.5267 75.6254 11.9335 75.0201 11.8304C74.4093 11.7274 74.0003 11.1524 74.1039 10.5503Z" fill="#408F95"/>
<path d="M105.57 36.8799C104.343 36.8637 103.149 36.766 101.971 36.587C100.357 36.3429 98.7533 35.9415 97.21 35.3937C91.5385 33.3867 88.4355 31.6563 83.2984 28.7923C82.9603 28.6024 82.8403 28.1793 83.0312 27.843C83.2221 27.5067 83.6474 27.3874 83.9856 27.5772C89.2317 30.5009 92.122 32.112 97.6845 34.081C99.146 34.5963 100.657 34.976 102.184 35.2093C103.296 35.3774 104.425 35.4696 105.548 35.4859C106.83 35.4371 107.446 35.2635 107.724 35.1387C107.381 34.9055 106.503 34.4498 104.305 33.761C103.934 33.647 103.732 33.2511 103.847 32.8876C103.961 32.5188 104.359 32.3127 104.725 32.432C108.259 33.5386 109.453 34.298 109.289 35.3232C109.082 36.6033 107.064 36.8257 105.565 36.8854L105.57 36.8799Z" fill="#408F95"/>
<path d="M107.713 33.8315C107.277 33.8315 106.863 33.8098 106.47 33.7881C100.837 33.441 96.2886 32.2476 96.0977 32.1934C93.9763 31.6292 91.8495 30.9404 89.7772 30.1484C89.4173 30.0074 89.2373 29.606 89.3737 29.248C89.5155 28.89 89.919 28.711 90.2789 28.8466C92.3076 29.6222 94.3853 30.2949 96.4576 30.8481C96.643 30.897 101.055 32.0578 106.552 32.3941C107.817 32.47 109.18 32.5026 110.778 31.9384C111.645 31.6347 112.469 31.1899 113.221 30.6203C113.532 30.3871 113.968 30.4467 114.203 30.7559C114.437 31.0651 114.377 31.4991 114.067 31.7323C113.2 32.3886 112.251 32.8985 111.247 33.2511C109.944 33.7122 108.76 33.8315 107.708 33.8315H107.713Z" fill="#408F95"/>
<path d="M130.884 36.88C129.052 36.88 127.231 36.701 125.426 36.343C121.439 35.5456 117.589 33.8424 114.29 31.4177C113.979 31.1899 113.913 30.7505 114.143 30.4413C114.372 30.1321 114.813 30.067 115.124 30.2948C118.26 32.6002 121.914 34.2221 125.698 34.976C128.545 35.5456 131.452 35.6378 134.342 35.2635C134.233 34.3305 133.917 32.6761 133.044 31.4828C132.793 31.141 132.379 30.5715 131.648 30.1104C131.457 29.9857 131.31 29.9151 130.912 29.7199L130.634 29.5843C129.837 29.1883 129.194 28.8574 128.768 28.635C128.425 28.456 128.294 28.0329 128.474 27.6912C128.654 27.3494 129.079 27.2193 129.423 27.3983C129.843 27.6207 130.475 27.9461 131.261 28.3312L131.533 28.4669C131.953 28.673 132.144 28.7652 132.406 28.9333C133.36 29.5409 133.895 30.2677 134.178 30.6583C135.536 32.5025 135.765 35.0791 135.803 35.8222C135.82 36.1802 135.563 36.4948 135.209 36.5491C133.769 36.7715 132.324 36.8854 130.879 36.8854L130.884 36.88Z" fill="#408F95"/>
<path d="M137.003 14.8518C135.972 14.8518 134.876 14.7813 133.655 14.6511C133.267 14.6077 132.989 14.266 133.033 13.8808C133.076 13.4957 133.42 13.2136 133.807 13.2625C134.985 13.3872 136.032 13.4523 137.014 13.4577C137.401 13.4577 137.712 13.7723 137.712 14.1575C137.712 14.5426 137.396 14.8518 137.008 14.8518H137.003Z" fill="#408F95"/>
<path d="M137.625 6.92688C137.554 6.92688 137.478 6.91603 137.407 6.89433C136.622 6.63396 135.836 6.36817 135.051 6.09696C132.886 5.35383 130.645 4.58357 128.322 4.07369C118.211 2.02872 108.362 1.14998 99.0586 1.46459C98.6769 1.47544 98.3442 1.1771 98.3333 0.791977C98.3224 0.40685 98.6223 0.0813914 99.0095 0.0705428C108.417 -0.249492 118.38 0.634672 128.611 2.70676C131.026 3.23834 133.3 4.01944 135.504 4.77885C136.283 5.04464 137.063 5.31586 137.843 5.5708C138.214 5.69013 138.41 6.08611 138.29 6.44954C138.192 6.74245 137.919 6.9323 137.625 6.9323V6.92688Z" fill="#408F95"/>
<path d="M84.0618 5.2941C83.7946 5.2941 83.5383 5.14222 83.4237 4.88728C83.2656 4.5347 83.4237 4.12245 83.7727 3.96515C85.556 3.15692 87.4047 2.46261 89.2752 1.89306C91.6911 1.15535 94.1833 0.618344 96.6918 0.292886C97.079 0.244067 97.428 0.509858 97.4771 0.894984C97.5262 1.28011 97.259 1.62727 96.8718 1.67609C94.445 1.9907 92.0237 2.51143 89.6842 3.22744C87.8737 3.78072 86.0741 4.45333 84.3508 5.23444C84.2581 5.27783 84.1599 5.29953 84.0618 5.29953V5.2941Z" fill="#408F95"/>
<path d="M97.9674 3.39018C97.7383 3.39018 97.5093 3.27627 97.3729 3.07014C97.1657 2.74468 97.2584 2.31074 97.5856 2.10462C97.7329 2.0124 97.951 1.87679 98.2182 1.72491C99.2216 1.16078 100.307 0.732263 101.441 0.444775C102.319 0.222378 103.224 0.0921943 104.135 0.0542241C104.522 0.0379512 104.85 0.336289 104.866 0.721415C104.882 1.10654 104.582 1.432 104.195 1.44827C103.377 1.48082 102.57 1.60015 101.785 1.79543C100.77 2.05037 99.7997 2.4355 98.9053 2.93454C98.6654 3.07014 98.4745 3.18948 98.3382 3.27084C98.2237 3.34678 98.0928 3.37933 97.9619 3.37933L97.9674 3.39018Z" fill="#408F95"/>
<path d="M107.746 4.00319C107.517 4.00319 107.288 3.88927 107.157 3.68315C106.95 3.35769 107.043 2.92917 107.37 2.71762C107.517 2.62541 107.735 2.4898 108.002 2.33792C109.006 1.77379 110.091 1.34527 111.231 1.05778C112.109 0.835386 113.014 0.705202 113.925 0.667232C114.312 0.645535 114.639 0.949296 114.656 1.33442C114.672 1.71955 114.372 2.04501 113.985 2.06128C113.167 2.09383 112.36 2.21316 111.574 2.40844C110.56 2.66338 109.589 3.04851 108.695 3.54754C108.455 3.68315 108.264 3.80249 108.128 3.88385C108.013 3.95979 107.877 3.99234 107.752 3.99234L107.746 4.00319Z" fill="#408F95"/>
<path d="M116.765 5.2725C116.536 5.2725 116.307 5.15859 116.171 4.95247C115.964 4.62701 116.056 4.19849 116.383 3.98694C116.531 3.89473 116.749 3.75912 117.016 3.60724C118.025 3.04311 119.11 2.61459 120.244 2.3271C121.122 2.1047 122.028 1.97452 122.938 1.93655C123.326 1.92028 123.653 2.21861 123.669 2.60374C123.686 2.98887 123.386 3.31432 122.998 3.3306C122.18 3.36314 121.373 3.48248 120.588 3.67775C119.574 3.9327 118.603 4.31782 117.709 4.81686C117.469 4.95247 117.278 5.0718 117.141 5.15317C117.027 5.22911 116.896 5.26165 116.765 5.26165V5.2725Z" fill="#408F95"/>
<path d="M130.17 34.0701H130.154C127.755 34.0104 125.475 33.4734 123.386 32.4645C122.476 32.0251 121.603 31.499 120.791 30.8969C120.48 30.6636 120.414 30.2297 120.649 29.9205C120.883 29.6113 121.32 29.5462 121.63 29.7795C122.372 30.3328 123.174 30.8155 123.997 31.2115C125.906 32.1282 127.989 32.6218 130.187 32.6761C130.574 32.6869 130.879 33.0069 130.874 33.3921C130.863 33.7718 130.552 34.0755 130.17 34.0755V34.0701Z" fill="#408F95"/>
<path d="M128.905 31.2549C128.823 31.2549 128.742 31.2387 128.665 31.2115L124.668 29.7578C124.303 29.6276 124.117 29.2262 124.248 28.8628C124.379 28.4994 124.788 28.3149 125.148 28.4451L129.145 29.8989C129.51 30.029 129.696 30.4304 129.565 30.7939C129.461 31.0759 129.194 31.2549 128.905 31.2549Z" fill="#408F95"/>
<path d="M138.863 14.7867C138.487 14.7867 138.17 14.4884 138.159 14.1087C138.149 13.7235 138.454 13.4035 138.841 13.3926C141.486 13.3167 142.615 12.8068 142.8 11.5809C142.299 9.90481 141.012 8.54331 138.874 7.4259C138.53 7.2469 138.399 6.8238 138.579 6.48207C138.759 6.14034 139.185 6.01016 139.528 6.18916C142.086 7.52354 143.613 9.2105 144.191 11.3423C144.213 11.4236 144.218 11.5104 144.213 11.5918C143.918 14.6402 140.39 14.7433 138.885 14.7867C138.879 14.7867 138.868 14.7867 138.863 14.7867Z" fill="#408F95"/>
<path d="M167.896 128.67C167.673 128.67 167.455 128.562 167.318 128.366C167.002 127.905 166.828 127.417 166.8 126.918C166.675 124.466 170.078 122.774 172.564 121.537C175.133 120.257 177.92 119.324 180.843 118.76C181.224 118.689 181.59 118.934 181.666 119.313C181.743 119.693 181.492 120.056 181.11 120.132C178.312 120.675 175.651 121.564 173.192 122.785C171.294 123.729 168.125 125.307 168.202 126.848C168.213 127.086 168.305 127.33 168.474 127.574C168.693 127.894 168.611 128.328 168.294 128.545C168.174 128.627 168.033 128.67 167.896 128.67Z" fill="#408F95"/>
<path d="M177.375 134.968C177.309 134.968 177.238 134.957 177.173 134.935C175.869 134.539 174.582 134.084 173.35 133.579C172.81 133.357 172.074 133.053 171.12 132.576C170.252 132.136 169.396 131.654 168.589 131.133C168.551 131.106 168.513 131.079 168.48 131.046C168.442 131.008 168.377 130.954 168.3 130.883C167.384 130.07 166.506 129.202 166.73 128.361C166.795 128.117 167.008 127.688 167.711 127.542C168.087 127.461 168.464 127.699 168.546 128.079C168.611 128.377 168.469 128.67 168.224 128.822C168.371 129.017 168.666 129.337 169.238 129.842C169.304 129.901 169.364 129.95 169.407 129.994C170.16 130.476 170.951 130.927 171.758 131.333C172.663 131.789 173.372 132.082 173.89 132.294C175.079 132.782 176.322 133.227 177.582 133.606C177.953 133.72 178.16 134.111 178.051 134.48C177.958 134.783 177.68 134.973 177.38 134.973L177.375 134.968Z" fill="#408F95"/>
<path d="M183.466 135.364C181.606 135.364 179.736 135.288 177.882 135.131C177.495 135.098 177.211 134.762 177.244 134.377C177.277 133.991 177.62 133.709 178.002 133.742C180.429 133.943 182.883 134.013 185.298 133.943C185.348 133.943 190.823 133.747 195.365 132.798C196.767 132.505 198.179 132.115 199.554 131.626C200.164 131.409 200.497 131.274 201.893 130.699L203.578 130.005C204.053 129.809 204.473 129.63 204.86 129.468C206.081 128.952 206.965 128.578 208.023 128.307C209.462 127.932 210.984 127.759 212.554 127.797C212.942 127.808 213.247 128.128 213.242 128.513C213.231 128.898 212.92 129.202 212.522 129.196C211.082 129.164 209.691 129.321 208.377 129.657C207.417 129.907 206.578 130.26 205.411 130.753C205.018 130.921 204.593 131.1 204.113 131.296L202.428 131.99C201.042 132.559 200.672 132.711 200.023 132.939C198.588 133.444 197.116 133.856 195.654 134.16C190.986 135.131 185.571 135.326 185.342 135.331C184.72 135.348 184.093 135.358 183.472 135.358L183.466 135.364Z" fill="#408F95"/>
<path d="M213.225 124.146C213.225 124.146 213.209 124.146 213.198 124.146C212.805 124.13 212.407 124.092 212.02 124.038C211.098 123.902 210.406 123.68 210.106 123.582L210.024 123.555C206.926 122.606 203.753 121.776 200.595 121.098C197.688 120.474 195.393 119.98 192.371 119.704C189.181 119.411 185.931 119.433 182.708 119.769C182.321 119.807 181.977 119.53 181.939 119.145C181.901 118.76 182.179 118.418 182.566 118.38C185.882 118.038 189.225 118.017 192.502 118.315C195.611 118.597 197.945 119.102 200.895 119.736C204.096 120.425 207.308 121.261 210.444 122.226L210.548 122.259C210.809 122.345 211.426 122.541 212.233 122.66C212.549 122.709 212.871 122.736 213.187 122.752C213.705 122.66 214.223 122.53 214.725 122.362C215.336 122.161 215.766 121.955 215.93 121.879C217.593 121.103 221.422 119.682 224.743 118.727C226.619 118.185 228.058 117.87 229.853 117.843C230.392 117.832 230.943 117.854 231.478 117.903C231.865 117.935 232.148 118.277 232.116 118.662C232.083 119.047 231.739 119.329 231.352 119.297C230.861 119.254 230.365 119.237 229.869 119.243C228.238 119.264 226.897 119.563 225.135 120.073C221.542 121.109 217.888 122.514 216.546 123.137C216.344 123.23 215.859 123.457 215.172 123.685C214.578 123.88 213.967 124.032 213.351 124.141C213.312 124.146 213.274 124.152 213.231 124.152L213.225 124.146Z" fill="#408F95"/>
<path d="M229.389 136.953C229.297 136.953 229.198 136.931 229.106 136.893L221.362 133.482C219.939 132.771 218.559 132.012 217.228 131.214C216.23 130.618 215.227 129.977 214.262 129.327C213.94 129.11 213.858 128.676 214.076 128.356C214.294 128.036 214.731 127.954 215.052 128.171C216.001 128.811 216.977 129.435 217.953 130.021C219.257 130.802 220.609 131.545 221.967 132.223L229.678 135.619C230.033 135.776 230.191 136.188 230.038 136.541C229.924 136.801 229.667 136.959 229.395 136.959L229.389 136.953Z" fill="#408F95"/>
<path d="M229.389 136.953C229.187 136.953 228.991 136.866 228.855 136.704C227.437 135.033 226.335 133.189 225.577 131.225C224.939 129.576 224.437 128.274 224.65 126.566C224.89 124.634 225.904 123.354 227.186 121.732L227.295 121.591C228.348 120.257 229.591 119.064 230.992 118.039C231.303 117.811 231.745 117.876 231.974 118.185C232.203 118.494 232.138 118.934 231.827 119.161C230.529 120.116 229.373 121.223 228.402 122.454L228.293 122.595C227.104 124.103 226.243 125.193 226.046 126.739C225.877 128.101 226.281 129.142 226.892 130.721C227.595 132.538 228.62 134.246 229.935 135.803C230.185 136.096 230.147 136.541 229.853 136.785C229.722 136.893 229.558 136.948 229.4 136.948L229.389 136.953Z" fill="#408F95"/>
<path d="M182.266 131.203C180.658 131.203 179.414 130.601 178.771 130.211C178.443 130.01 178.34 129.576 178.542 129.251C178.743 128.925 179.174 128.822 179.507 129.023C180.085 129.375 181.285 129.945 182.823 129.777C184.36 129.609 185.309 128.8 185.942 128.263C186.035 128.187 186.105 128.117 186.165 128.063C185.789 127.976 185.14 127.922 184.219 127.9C182.681 127.862 181.099 128.041 179.518 128.421C179.142 128.513 178.76 128.28 178.667 127.905C178.574 127.531 178.809 127.151 179.185 127.059C180.887 126.647 182.593 126.457 184.251 126.495C186.029 126.538 187.518 126.658 187.763 127.688C187.911 128.318 187.387 128.865 186.853 129.321C186.182 129.891 184.938 130.943 182.975 131.16C182.73 131.187 182.495 131.198 182.266 131.198V131.203Z" fill="#408F95"/>
<path d="M176.054 132.825C175.847 132.825 175.64 132.733 175.498 132.554C175.258 132.25 175.318 131.811 175.624 131.572C176.736 130.715 177.609 129.663 178.225 128.453C178.552 127.813 178.798 127.13 178.961 126.419C179.048 126.045 179.425 125.812 179.801 125.898C180.177 125.985 180.412 126.359 180.324 126.734C180.134 127.553 179.85 128.339 179.474 129.082C178.765 130.482 177.756 131.692 176.48 132.679C176.354 132.776 176.202 132.825 176.049 132.825H176.054Z" fill="#408F95"/>
<path d="M171.774 126.408C171.774 126.408 171.763 126.408 171.752 126.408C171.005 126.397 170.399 125.779 170.41 125.036C170.421 124.287 171.021 123.691 171.79 123.702C172.155 123.702 172.493 123.853 172.744 124.114C172.995 124.374 173.132 124.716 173.126 125.074C173.115 125.812 172.504 126.408 171.768 126.408H171.774ZM171.73 125.052C171.73 125.052 171.746 125.09 171.774 125.096C171.795 125.096 171.817 125.074 171.817 125.052H171.73ZM171.73 125.052H171.817C171.817 125.052 171.79 124.993 171.774 125.009C171.752 125.009 171.73 125.025 171.73 125.052Z" fill="#408F95"/>
<path d="M189.662 138C188.685 138 187.709 137.908 186.749 137.723C183.243 137.056 181.274 136.324 178.013 135.109C177.648 134.973 177.468 134.572 177.604 134.208C177.74 133.845 178.144 133.666 178.509 133.802C181.814 135.033 183.63 135.706 187.017 136.351C187.895 136.519 188.767 136.601 189.683 136.601C190.332 136.601 190.987 136.552 191.63 136.465C192.028 136.411 192.394 136.286 192.606 136.183C192.334 135.933 191.652 135.478 190.256 134.881C189.901 134.729 189.732 134.317 189.891 133.964C190.043 133.612 190.458 133.444 190.812 133.601C193.953 134.941 194.242 135.798 194.111 136.454C193.904 137.479 192.312 137.783 191.832 137.848C191.118 137.946 190.365 137.995 189.672 138H189.662Z" fill="#408F95"/>
<path d="M204.048 135.781C203.797 135.781 203.546 135.776 203.295 135.765C200.863 135.657 198.425 134.995 196.249 133.856C195.906 133.677 195.775 133.254 195.955 132.912C196.135 132.57 196.56 132.44 196.904 132.619C198.9 133.661 201.13 134.268 203.36 134.366C204.936 134.436 206.512 134.263 208.045 133.85C207.849 133.254 207.532 132.592 207.101 132.163C206.927 131.99 206.671 131.729 206.251 131.55C206.125 131.496 206.033 131.469 205.82 131.399L205.645 131.344C205.144 131.187 204.74 131.051 204.467 130.959C204.102 130.834 203.906 130.439 204.031 130.07C204.157 129.706 204.555 129.511 204.926 129.636C205.187 129.728 205.585 129.858 206.071 130.015L206.245 130.07C206.534 130.162 206.654 130.2 206.823 130.276C207.478 130.563 207.898 130.981 208.099 131.182C209.114 132.196 209.495 133.742 209.588 134.192C209.659 134.545 209.457 134.892 209.114 135C207.467 135.521 205.765 135.781 204.053 135.781H204.048Z" fill="#408F95"/>
<path d="M206.119 122.411C205.748 122.411 205.437 122.118 205.416 121.743C205.399 121.358 205.699 121.033 206.086 121.011C206.774 120.978 207.379 120.924 207.941 120.837C208.322 120.783 208.682 121.044 208.737 121.423C208.791 121.803 208.53 122.161 208.148 122.215C207.537 122.307 206.883 122.367 206.152 122.4C206.141 122.4 206.13 122.4 206.119 122.4V122.411Z" fill="#408F95"/>
<path d="M208.045 122.232C207.679 122.232 207.368 121.949 207.346 121.581C207.319 121.196 207.614 120.865 208.001 120.838C209.806 120.724 210.711 120.138 210.788 119.644C210.858 119.189 210.231 118.424 208.688 117.811C208.328 117.67 208.154 117.263 208.295 116.905C208.437 116.547 208.846 116.373 209.206 116.514C211.267 117.328 212.38 118.576 212.173 119.861C211.96 121.196 210.433 122.08 208.088 122.226C208.072 122.226 208.055 122.226 208.045 122.226V122.232Z" fill="#408F95"/>
<path d="M184.743 117.827C184.421 117.827 184.132 117.605 184.061 117.285C183.974 116.91 184.214 116.536 184.59 116.449C190.452 115.131 196.369 114.757 202.183 115.337C203.813 115.5 205.46 115.739 207.074 116.053C207.456 116.129 207.701 116.493 207.63 116.872C207.554 117.252 207.189 117.496 206.807 117.426C205.236 117.122 203.633 116.889 202.041 116.726C196.38 116.162 190.61 116.525 184.901 117.811C184.846 117.822 184.797 117.827 184.748 117.827H184.743Z" fill="#408F95"/>
<path d="M176.371 121.391C176.142 121.391 175.919 121.277 175.783 121.076C175.57 120.751 175.663 120.322 175.984 120.111C176.96 119.476 177.986 118.896 179.033 118.396C180.031 117.914 181.078 117.491 182.136 117.138C182.381 117.057 182.594 116.986 182.741 116.943C183.106 116.829 183.505 117.035 183.619 117.398C183.734 117.767 183.526 118.158 183.161 118.272C183.019 118.315 182.823 118.38 182.588 118.456C181.585 118.792 180.598 119.194 179.649 119.65C178.656 120.127 177.686 120.675 176.759 121.277C176.639 121.353 176.508 121.391 176.377 121.391H176.371Z" fill="#408F95"/>
<path d="M187.093 117.984C186.984 117.984 186.88 117.941 186.804 117.854C186.662 117.697 186.678 117.453 186.837 117.312C186.913 117.247 187.027 117.149 187.169 117.035C187.704 116.617 188.293 116.276 188.925 116.01C189.411 115.804 189.929 115.646 190.452 115.543C190.659 115.5 190.867 115.636 190.905 115.847C190.943 116.059 190.812 116.259 190.599 116.297C190.125 116.39 189.661 116.531 189.225 116.715C188.658 116.954 188.124 117.268 187.644 117.637C187.518 117.735 187.415 117.827 187.344 117.887C187.273 117.952 187.18 117.984 187.087 117.984H187.093Z" fill="#408F95"/>
<path d="M190.746 117.87C190.621 117.87 190.495 117.805 190.419 117.691C190.305 117.512 190.354 117.274 190.534 117.16C190.615 117.106 190.735 117.03 190.883 116.943C191.433 116.612 192.028 116.303 192.633 116.037C193.108 115.825 193.587 115.641 194.073 115.478C194.275 115.413 194.493 115.522 194.564 115.722C194.629 115.923 194.52 116.14 194.318 116.211C193.86 116.362 193.397 116.541 192.949 116.742C192.371 116.997 191.81 117.29 191.281 117.605C191.139 117.686 191.024 117.762 190.948 117.811C190.883 117.854 190.812 117.87 190.741 117.87H190.746Z" fill="#408F95"/>
<path d="M195.365 117.876C195.245 117.876 195.131 117.822 195.054 117.719C194.929 117.55 194.961 117.306 195.136 117.182C195.218 117.122 195.332 117.035 195.48 116.937C196.025 116.569 196.614 116.249 197.236 115.977C197.715 115.771 198.212 115.592 198.713 115.457C198.921 115.397 199.133 115.522 199.188 115.728C199.242 115.934 199.122 116.145 198.915 116.2C198.452 116.324 197.988 116.487 197.541 116.682C196.963 116.932 196.418 117.23 195.91 117.572C195.774 117.664 195.665 117.74 195.594 117.794C195.523 117.843 195.447 117.87 195.365 117.87V117.876Z" fill="#408F95"/>
<path d="M204.292 132.728C204.292 132.728 204.254 132.728 204.238 132.728L201.124 132.299C200.911 132.272 200.764 132.077 200.797 131.865C200.824 131.654 201.026 131.507 201.233 131.54L204.347 131.968C204.559 131.995 204.707 132.191 204.674 132.402C204.647 132.592 204.483 132.733 204.292 132.733V132.728Z" fill="#408F95"/>
<path d="M224.317 132.093C224.213 132.093 224.104 132.066 224.006 132.001C223.068 131.409 222.234 130.683 221.536 129.842C220.598 128.719 219.72 127.661 219.834 126.273C219.954 124.857 221.04 123.956 222.19 123.002C223.134 122.221 224.197 121.602 225.359 121.174C225.659 121.06 225.991 121.212 226.106 121.51C226.22 121.808 226.068 122.139 225.768 122.253C224.731 122.638 223.777 123.192 222.937 123.886C221.896 124.748 221.072 125.432 220.99 126.37C220.914 127.287 221.579 128.09 222.425 129.104C223.046 129.853 223.788 130.498 224.628 131.03C224.901 131.198 224.977 131.556 224.808 131.827C224.699 132.001 224.508 132.093 224.317 132.093Z" fill="#408F95"/>
<path d="M241.489 108.47C241.173 108.47 240.889 108.258 240.808 107.938C240.671 107.396 240.677 106.881 240.829 106.403C241.571 104.06 245.356 103.653 248.115 103.36C250.973 103.051 253.912 103.143 256.846 103.626C257.228 103.691 257.49 104.049 257.424 104.429C257.359 104.809 257.004 105.069 256.617 105.004C253.809 104.537 250.995 104.456 248.268 104.749C246.163 104.977 242.635 105.356 242.171 106.826C242.1 107.054 242.1 107.315 242.171 107.602C242.264 107.976 242.035 108.356 241.658 108.448C241.604 108.465 241.544 108.47 241.489 108.47Z" fill="#408F95"/>
<path d="M248.164 117.653C248.017 117.653 247.864 117.605 247.739 117.512C246.654 116.693 245.612 115.82 244.631 114.914C244.2 114.518 243.611 113.976 242.891 113.2C242.231 112.489 241.604 111.741 241.026 110.971C240.999 110.933 240.977 110.895 240.955 110.851C240.933 110.802 240.895 110.732 240.846 110.64C240.268 109.56 239.75 108.443 240.257 107.727C240.404 107.521 240.753 107.195 241.462 107.298C241.844 107.353 242.111 107.711 242.057 108.09C242.013 108.394 241.778 108.622 241.495 108.676C241.56 108.909 241.729 109.311 242.089 109.989C242.133 110.065 242.166 110.135 242.193 110.184C242.733 110.9 243.316 111.594 243.927 112.251C244.609 112.988 245.176 113.509 245.59 113.889C246.534 114.762 247.548 115.603 248.595 116.4C248.906 116.634 248.961 117.073 248.726 117.377C248.59 117.556 248.377 117.653 248.17 117.653H248.164Z" fill="#408F95"/>
<path d="M283.137 124.439C283.05 124.439 282.963 124.423 282.875 124.39C281.539 123.859 280.176 123.522 278.829 123.387C277.842 123.289 276.926 123.327 275.66 123.387C275.235 123.409 274.772 123.425 274.259 123.447L272.432 123.512C270.938 123.566 270.54 123.582 269.853 123.566C268.331 123.539 266.81 123.414 265.332 123.192C260.62 122.486 255.472 120.789 255.254 120.713C252.92 119.926 250.591 118.988 248.334 117.935C247.984 117.773 247.832 117.355 247.995 117.008C248.159 116.661 248.579 116.509 248.928 116.672C251.137 117.708 253.411 118.619 255.696 119.389C255.745 119.405 260.942 121.119 265.533 121.808C266.951 122.02 268.413 122.139 269.869 122.166C270.518 122.177 270.872 122.166 272.378 122.112L274.21 122.047C274.717 122.031 275.175 122.009 275.6 121.987C276.926 121.928 277.885 121.884 278.971 121.993C280.449 122.139 281.937 122.508 283.399 123.089C283.759 123.23 283.933 123.636 283.791 123.994C283.682 124.266 283.421 124.434 283.137 124.434V124.439Z" fill="#408F95"/>
<path d="M304.296 121.7C304.193 121.7 304.095 121.678 303.997 121.635C303.555 121.423 303.091 121.233 302.628 121.071C301.09 120.523 299.732 120.338 297.9 120.203C294.17 119.926 290.249 119.98 288.776 120.1C288.553 120.116 288.013 120.165 287.293 120.138C286.671 120.116 286.044 120.045 285.428 119.932C285.379 119.921 285.33 119.91 285.286 119.888C284.921 119.736 284.566 119.563 284.223 119.378C283.405 118.933 282.837 118.483 282.592 118.288L282.521 118.234C279.947 116.27 277.264 114.393 274.543 112.663C272.04 111.068 270.06 109.81 267.322 108.502C264.432 107.125 261.378 106.018 258.243 105.21C257.866 105.112 257.643 104.733 257.741 104.358C257.839 103.984 258.221 103.762 258.597 103.859C261.825 104.689 264.967 105.828 267.933 107.244C270.747 108.589 272.76 109.864 275.301 111.486C278.055 113.238 280.776 115.136 283.377 117.127L283.465 117.192C283.683 117.36 284.184 117.762 284.899 118.152C285.177 118.304 285.466 118.445 285.76 118.57C286.278 118.662 286.813 118.722 287.342 118.738C287.98 118.76 288.46 118.722 288.64 118.706C290.472 118.554 294.557 118.554 298.003 118.809C299.956 118.955 301.412 119.15 303.102 119.753C303.615 119.932 304.117 120.143 304.602 120.371C304.951 120.539 305.098 120.951 304.935 121.304C304.815 121.553 304.564 121.7 304.302 121.7H304.296Z" fill="#408F95"/>
<path d="M296.225 137.55C296.05 137.55 295.871 137.485 295.734 137.349L289.67 131.469C288.585 130.308 287.56 129.12 286.589 127.911C285.858 126.999 285.149 126.061 284.467 125.112C284.244 124.797 284.32 124.363 284.631 124.141C284.947 123.918 285.384 123.994 285.607 124.304C286.273 125.231 286.965 126.153 287.68 127.043C288.628 128.225 289.632 129.386 290.668 130.498L296.705 136.356C296.983 136.628 296.988 137.067 296.716 137.344C296.579 137.485 296.394 137.555 296.214 137.555L296.225 137.55Z" fill="#408F95"/>
<path d="M296.225 137.55C295.936 137.55 295.669 137.371 295.565 137.089C294.824 135.033 294.436 132.917 294.415 130.813C294.393 129.044 294.382 127.65 295.178 126.126C296.083 124.401 297.479 123.55 299.246 122.476L299.399 122.383C300.85 121.499 302.437 120.81 304.111 120.333C304.482 120.224 304.874 120.441 304.978 120.81C305.087 121.179 304.869 121.57 304.498 121.673C302.944 122.112 301.477 122.752 300.135 123.571L299.983 123.663C298.336 124.667 297.147 125.388 296.427 126.772C295.789 127.987 295.805 129.104 295.822 130.796C295.843 132.744 296.203 134.702 296.89 136.617C297.021 136.98 296.83 137.382 296.465 137.512C296.389 137.539 296.307 137.555 296.231 137.555L296.225 137.55Z" fill="#408F95"/>
<path d="M256.012 116.173C255.543 116.173 255.036 116.118 254.501 115.988C252.593 115.511 251.426 114.312 250.897 113.634C250.657 113.33 250.711 112.891 251.017 112.652C251.322 112.414 251.764 112.468 252.004 112.772C252.424 113.303 253.345 114.252 254.845 114.627C256.345 115.001 257.523 114.572 258.297 114.29C258.412 114.247 258.504 114.214 258.581 114.176C258.259 113.965 257.664 113.688 256.808 113.352C255.385 112.788 253.842 112.403 252.222 112.213C251.835 112.169 251.562 111.822 251.606 111.437C251.649 111.052 251.998 110.775 252.386 110.824C254.125 111.03 255.794 111.443 257.332 112.056C258.984 112.712 260.337 113.341 260.206 114.388C260.129 115.028 259.442 115.359 258.777 115.598C258.183 115.815 257.217 116.167 256.007 116.167L256.012 116.173Z" fill="#408F95"/>
<path d="M247.679 115.191C247.379 115.191 247.101 115.001 247.009 114.702C246.894 114.334 247.096 113.943 247.467 113.829C248.808 113.412 249.997 112.728 251 111.806C251.529 111.318 252.004 110.764 252.407 110.157C252.62 109.837 253.056 109.745 253.378 109.956C253.7 110.168 253.793 110.602 253.58 110.922C253.116 111.621 252.571 112.262 251.96 112.826C250.804 113.889 249.435 114.675 247.892 115.158C247.821 115.18 247.75 115.191 247.679 115.191Z" fill="#408F95"/>
<path d="M246.147 107.732C245.978 107.732 245.814 107.7 245.656 107.64C244.958 107.369 244.609 106.582 244.882 105.888C245.155 105.194 245.945 104.847 246.643 105.118C247.341 105.389 247.69 106.176 247.418 106.87C247.287 107.206 247.031 107.472 246.698 107.618C246.523 107.694 246.338 107.732 246.153 107.732H246.147ZM246.103 106.365C246.093 106.387 246.103 106.414 246.131 106.42C246.147 106.425 246.18 106.414 246.185 106.393L246.103 106.36V106.365ZM246.103 106.365L246.185 106.398C246.185 106.398 246.185 106.349 246.158 106.344C246.136 106.338 246.109 106.349 246.103 106.371V106.365Z" fill="#408F95"/>
<path d="M261.519 125.443C261.067 125.443 260.652 125.367 260.451 125.323C259.752 125.172 259.06 124.971 258.395 124.721C257.473 124.385 256.584 123.951 255.744 123.447C252.69 121.608 251.103 120.235 248.469 117.968C248.175 117.713 248.142 117.274 248.399 116.981C248.655 116.688 249.097 116.655 249.391 116.91C252.058 119.205 253.525 120.474 256.475 122.253C257.238 122.714 258.051 123.105 258.885 123.414C259.491 123.636 260.123 123.821 260.756 123.962C261.149 124.049 261.536 124.06 261.77 124.032C261.607 123.702 261.121 123.04 260.025 121.998C259.747 121.733 259.736 121.288 260.003 121.011C260.271 120.734 260.718 120.724 260.996 120.989C263.466 123.338 263.439 124.239 263.084 124.808C262.768 125.313 262.119 125.448 261.53 125.448L261.519 125.443Z" fill="#408F95"/>
<path d="M277.689 128.643C277.689 128.643 277.667 128.643 277.656 128.643C275.677 128.545 273.752 128.111 271.936 127.347C269.694 126.403 267.644 124.938 266.002 123.116C265.746 122.828 265.768 122.389 266.057 122.128C266.346 121.868 266.788 121.895 267.049 122.183C268.555 123.853 270.436 125.193 272.487 126.061C273.943 126.674 275.475 127.059 277.056 127.2C277.078 126.663 277.046 125.909 276.762 125.296C276.658 125.074 276.506 124.743 276.184 124.423C276.086 124.331 276.009 124.271 275.835 124.135L275.688 124.022C275.273 123.701 274.941 123.43 274.722 123.251C274.422 123.007 274.379 122.568 274.624 122.269C274.87 121.971 275.311 121.928 275.611 122.172C275.824 122.345 276.151 122.611 276.555 122.92L276.697 123.034C276.936 123.219 277.035 123.3 277.166 123.425C277.678 123.924 277.924 124.461 278.044 124.716C278.638 126.012 278.458 127.596 278.387 128.052C278.333 128.394 278.038 128.643 277.695 128.643H277.689Z" fill="#408F95"/>
<path d="M281.375 116.352C281.326 116.352 281.277 116.352 281.228 116.335C280.628 116.211 279.99 116.037 279.292 115.815C278.921 115.695 278.719 115.305 278.839 114.936C278.959 114.567 279.352 114.366 279.723 114.486C280.377 114.692 280.966 114.854 281.522 114.968C281.904 115.05 282.144 115.419 282.062 115.798C281.991 116.129 281.702 116.352 281.375 116.352Z" fill="#408F95"/>
<path d="M283.339 116.677C282.695 116.677 281.97 116.563 281.174 116.324C280.803 116.216 280.59 115.825 280.705 115.457C280.814 115.088 281.207 114.876 281.577 114.99C283.312 115.505 284.364 115.272 284.609 114.838C284.839 114.437 284.517 113.498 283.284 112.397C282.995 112.137 282.973 111.697 283.23 111.41C283.492 111.123 283.933 111.101 284.222 111.356C285.869 112.831 286.475 114.388 285.831 115.522C285.4 116.281 284.517 116.677 283.339 116.677Z" fill="#408F95"/>
<path d="M282.019 111.47C281.894 111.47 281.769 111.437 281.654 111.367C280.285 110.537 278.867 109.761 277.433 109.061C272.323 106.571 266.794 104.912 260.986 104.136C260.604 104.087 260.331 103.735 260.386 103.349C260.44 102.97 260.789 102.699 261.177 102.753C267.132 103.55 272.809 105.253 278.055 107.808C279.527 108.524 280.989 109.322 282.39 110.179C282.723 110.379 282.827 110.808 282.625 111.139C282.494 111.356 282.259 111.475 282.025 111.475L282.019 111.47Z" fill="#408F95"/>
<path d="M251.982 104.581C251.66 104.581 251.371 104.364 251.3 104.038C251.213 103.664 251.453 103.29 251.829 103.203C252.963 102.948 254.13 102.758 255.287 102.65C256.394 102.547 257.517 102.509 258.635 102.547C258.897 102.552 259.115 102.563 259.273 102.574C259.66 102.595 259.955 102.921 259.938 103.306C259.922 103.691 259.584 103.984 259.202 103.968C259.055 103.962 258.848 103.952 258.597 103.941C257.539 103.908 256.47 103.941 255.423 104.044C254.321 104.147 253.22 104.32 252.145 104.564C252.091 104.575 252.042 104.581 251.987 104.581H251.982Z" fill="#408F95"/>
<path d="M263.112 105.085C262.96 105.085 262.812 104.993 262.752 104.841C262.676 104.64 262.774 104.418 262.976 104.342C263.074 104.304 263.216 104.255 263.385 104.201C264.029 103.995 264.705 103.876 265.392 103.848C265.921 103.827 266.461 103.854 266.99 103.941C267.202 103.973 267.344 104.174 267.311 104.38C267.279 104.592 267.077 104.727 266.87 104.7C266.395 104.624 265.91 104.597 265.435 104.619C264.819 104.646 264.208 104.754 263.63 104.939C263.478 104.988 263.352 105.036 263.265 105.069C263.221 105.085 263.172 105.096 263.129 105.096L263.112 105.085Z" fill="#408F95"/>
<path d="M266.58 106.246C266.4 106.246 266.242 106.121 266.204 105.942C266.16 105.736 266.291 105.53 266.498 105.487C266.591 105.465 266.733 105.438 266.902 105.405C267.534 105.286 268.194 105.205 268.865 105.161C269.383 105.129 269.901 105.118 270.408 105.134C270.621 105.139 270.79 105.318 270.785 105.53C270.779 105.742 270.588 105.893 270.386 105.904C269.901 105.888 269.41 105.899 268.914 105.926C268.281 105.964 267.649 106.045 267.049 106.159C266.891 106.192 266.754 106.219 266.667 106.235C266.64 106.241 266.613 106.246 266.585 106.246H266.58Z" fill="#408F95"/>
<path d="M270.905 107.852C270.736 107.852 270.583 107.743 270.534 107.575C270.474 107.369 270.594 107.157 270.796 107.098C270.894 107.071 271.03 107.033 271.205 106.989C271.843 106.832 272.508 106.734 273.184 106.702C273.708 106.675 274.237 106.68 274.75 106.729C274.962 106.745 275.12 106.935 275.099 107.146C275.077 107.358 274.886 107.515 274.679 107.494C274.199 107.45 273.708 107.445 273.223 107.472C272.595 107.504 271.974 107.597 271.385 107.743C271.227 107.781 271.096 107.819 271.008 107.841C270.97 107.852 270.938 107.857 270.899 107.857L270.905 107.852Z" fill="#408F95"/>
<path d="M274.068 124.868C274.008 124.868 273.942 124.851 273.882 124.819L271.117 123.338C270.932 123.235 270.861 123.002 270.959 122.817C271.063 122.633 271.297 122.562 271.483 122.66L274.248 124.141C274.433 124.244 274.504 124.477 274.406 124.662C274.335 124.792 274.204 124.862 274.068 124.862V124.868Z" fill="#408F95"/>
<path d="M293.133 131.23C292.959 131.23 292.784 131.154 292.67 131.003C291.999 130.124 291.47 129.153 291.11 128.122C290.625 126.75 290.172 125.448 290.766 124.19C291.377 122.904 292.708 122.432 294.12 121.939C295.276 121.532 296.493 121.326 297.73 121.32C298.052 121.32 298.309 121.575 298.309 121.895C298.309 122.215 298.052 122.47 297.73 122.476C296.623 122.476 295.538 122.665 294.508 123.029C293.226 123.479 292.217 123.832 291.814 124.683C291.421 125.519 291.764 126.5 292.201 127.748C292.522 128.665 292.991 129.527 293.591 130.314C293.788 130.569 293.733 130.927 293.482 131.122C293.379 131.203 293.253 131.241 293.133 131.241V131.23Z" fill="#408F95"/>
<path d="M163.365 61.5171C163.119 61.5171 162.874 61.3977 162.727 61.1808C162.301 60.5678 162.072 59.9223 162.04 59.2606C161.871 55.9626 166.566 53.6301 169.991 51.9269C173.574 50.1477 177.456 48.8459 181.525 48.0593C181.944 47.978 182.348 48.2492 182.43 48.6669C182.512 49.0845 182.239 49.4859 181.819 49.5673C177.887 50.3267 174.135 51.5851 170.683 53.2992C167.984 54.6445 163.468 56.8901 163.583 59.1846C163.599 59.5535 163.741 59.9332 164.003 60.3129C164.243 60.6654 164.156 61.1428 163.801 61.3815C163.67 61.4737 163.517 61.5171 163.365 61.5171Z" fill="#408F95"/>
<path d="M176.627 70.3316C176.551 70.3316 176.475 70.3207 176.404 70.299C174.588 69.7512 172.794 69.1111 171.07 68.4059C170.318 68.0967 169.287 67.6736 167.962 67.0065C166.751 66.3989 165.568 65.7209 164.433 64.994C164.39 64.9669 164.352 64.9344 164.313 64.9018C164.259 64.8476 164.166 64.7662 164.057 64.6686C162.819 63.5729 161.636 62.4121 161.919 61.3435C161.996 61.0506 162.258 60.5298 163.13 60.3454C163.545 60.2586 163.959 60.519 164.046 60.9366C164.134 61.338 163.883 61.734 163.49 61.8371C163.637 62.1083 164.057 62.6019 165.082 63.5186C165.181 63.6054 165.262 63.6814 165.328 63.7356C166.397 64.4191 167.515 65.0537 168.654 65.6287C169.925 66.2688 170.923 66.681 171.654 66.9793C173.328 67.6682 175.078 68.2866 176.845 68.8236C177.254 68.9484 177.483 69.3769 177.358 69.7837C177.254 70.1146 176.949 70.3316 176.616 70.3316H176.627Z" fill="#408F95"/>
<path d="M185.15 70.8849C182.555 70.8849 179.942 70.7764 177.352 70.5594C176.927 70.5215 176.61 70.1526 176.649 69.7295C176.681 69.3064 177.058 68.9918 177.483 69.0298C180.891 69.3173 184.332 69.4095 187.719 69.3118C187.79 69.3118 195.468 69.0352 201.849 67.7062C203.823 67.294 205.808 66.7407 207.738 66.0627C208.6 65.7589 209.064 65.5691 211.016 64.7663L213.383 63.7953C214.043 63.5241 214.632 63.2746 215.177 63.0467C216.884 62.3253 218.116 61.81 219.583 61.4249C221.579 60.9041 223.69 60.6709 225.871 60.7197C226.296 60.7306 226.634 61.0831 226.624 61.5062C226.613 61.9293 226.242 62.2548 225.833 62.2548C223.799 62.206 221.83 62.4284 219.976 62.9111C218.618 63.2637 217.429 63.7682 215.782 64.4571C215.237 64.6903 214.642 64.9398 213.977 65.211L211.61 66.182C209.68 66.9794 209.162 67.1909 208.256 67.5055C206.261 68.2053 204.21 68.7802 202.165 69.2033C195.648 70.5594 187.844 70.8361 187.763 70.8415C186.896 70.8686 186.023 70.8795 185.145 70.8795L185.15 70.8849Z" fill="#408F95"/>
<path d="M226.82 55.1869C226.82 55.1869 226.799 55.1869 226.788 55.1869C226.242 55.1652 225.697 55.1164 225.163 55.035C223.886 54.8506 222.927 54.5414 222.518 54.4058L222.398 54.3679C218.051 53.0335 213.607 51.8781 209.179 50.9234C205.105 50.0447 201.882 49.3558 197.639 48.9652C193.162 48.5584 188.592 48.5855 184.066 49.052C183.64 49.1008 183.259 48.7917 183.215 48.3686C183.171 47.9455 183.477 47.5658 183.902 47.5224C188.527 47.045 193.195 47.0179 197.776 47.4302C202.111 47.8261 205.372 48.5259 209.5 49.4154C213.972 50.3756 218.466 51.5472 222.85 52.8924L222.992 52.9358C223.363 53.0552 224.236 53.3372 225.381 53.5054C225.839 53.5705 226.302 53.6193 226.766 53.6356C227.513 53.5054 228.255 53.321 228.975 53.0823C229.836 52.7948 230.452 52.5073 230.687 52.3988C233.005 51.3194 238.354 49.3341 242.99 47.9997C245.602 47.2457 247.598 46.8064 250.085 46.7738C250.837 46.763 251.595 46.7901 252.337 46.8552C252.762 46.8931 253.078 47.2674 253.04 47.6905C253.002 48.1136 252.631 48.4282 252.201 48.3903C251.508 48.3306 250.804 48.3089 250.101 48.3143C247.794 48.3469 245.902 48.7645 243.415 49.4805C238.371 50.9343 233.239 52.9087 231.358 53.782C231.08 53.9122 230.403 54.2268 229.454 54.5414C228.631 54.8126 227.786 55.0242 226.935 55.1706C226.891 55.1761 226.848 55.1815 226.804 55.1815L226.82 55.1869Z" fill="#408F95"/>
<path d="M249.452 73.1143C249.349 73.1143 249.239 73.0926 249.141 73.0492L238.3 68.2759C236.326 67.2886 234.395 66.2255 232.53 65.1135C231.129 64.2727 229.733 63.3831 228.386 62.4718C228.031 62.2332 227.944 61.7558 228.184 61.4032C228.424 61.0507 228.904 60.9584 229.258 61.2025C230.583 62.0976 231.952 62.9709 233.332 63.7954C235.164 64.8911 237.057 65.9325 238.965 66.8872L249.768 71.6444C250.161 71.8179 250.336 72.2681 250.161 72.6587C250.036 72.9462 249.752 73.1143 249.452 73.1143Z" fill="#408F95"/>
<path d="M249.452 73.1143C249.234 73.1143 249.016 73.022 248.863 72.843C246.895 70.5214 245.362 67.9612 244.31 65.2327C243.426 62.9491 242.734 61.1482 243.023 58.8103C243.355 56.1633 244.757 54.3895 246.529 52.1439L246.682 51.9486C248.143 50.0989 249.867 48.4391 251.819 47.0125C252.163 46.7629 252.648 46.8335 252.899 47.1752C253.15 47.5169 253.079 47.9997 252.735 48.2492C250.897 49.5944 249.272 51.1566 247.898 52.8978L247.745 53.0931C246.055 55.2303 244.833 56.7762 244.555 59.0002C244.31 60.9529 244.882 62.4338 245.749 64.6795C246.742 67.2506 248.187 69.6644 250.047 71.8504C250.319 72.1759 250.281 72.6586 249.954 72.9353C249.807 73.0546 249.632 73.1143 249.458 73.1143H249.452Z" fill="#408F95"/>
<path d="M183.476 65.0645C181.273 65.0645 179.572 64.2401 178.694 63.703C178.328 63.4806 178.219 63.0087 178.443 62.6453C178.667 62.2819 179.141 62.168 179.506 62.3958C180.341 62.9057 182.069 63.7247 184.278 63.4806C186.492 63.2366 187.855 62.0757 188.761 61.3109C189.05 61.0668 189.224 60.8878 189.328 60.7685C188.963 60.6275 188.112 60.4864 186.219 60.4376C184.054 60.3888 181.819 60.6329 179.583 61.1753C179.168 61.2784 178.748 61.0234 178.65 60.6112C178.547 60.1989 178.803 59.7813 179.217 59.6836C181.584 59.1086 183.956 58.8483 186.258 58.9025C188.57 58.9568 190.669 59.1141 190.98 60.4105C191.128 61.0289 190.779 61.631 189.77 62.488C188.788 63.3233 187.141 64.7174 184.453 65.0157C184.12 65.0537 183.793 65.07 183.482 65.07L183.476 65.0645Z" fill="#408F95"/>
<path d="M174.778 67.3374C174.549 67.3374 174.32 67.2344 174.168 67.0391C173.906 66.7028 173.966 66.22 174.304 65.9596C175.885 64.7392 177.129 63.2475 178.007 61.5226C178.47 60.6113 178.825 59.6349 179.059 58.6314C179.158 58.2191 179.572 57.9588 179.986 58.0564C180.401 58.1541 180.663 58.5663 180.564 58.9786C180.303 60.1068 179.905 61.1971 179.387 62.2169C178.41 64.1479 177.02 65.8132 175.253 67.1747C175.111 67.2832 174.948 67.3374 174.778 67.3374Z" fill="#408F95"/>
<path d="M168.791 58.3493C168.791 58.3493 168.775 58.3493 168.764 58.3493C167.831 58.3385 167.079 57.5682 167.095 56.6407C167.106 55.7185 167.864 54.9808 168.791 54.9808C168.796 54.9808 168.807 54.9808 168.813 54.9808C169.745 54.9917 170.498 55.7619 170.482 56.6895C170.471 57.6116 169.713 58.3493 168.786 58.3493H168.791ZM168.791 56.5159C168.709 56.5159 168.644 56.581 168.644 56.6624C168.644 56.7112 168.666 56.7492 168.687 56.7654C168.709 56.7871 168.742 56.8088 168.791 56.8088C168.867 56.8088 168.938 56.7437 168.944 56.6624C168.944 56.581 168.878 56.5159 168.796 56.5105L168.791 56.5159Z" fill="#408F95"/>
<path d="M193.833 74.5789C192.48 74.5789 191.122 74.4487 189.792 74.1992C184.9 73.2662 182.152 72.2464 177.593 70.5486C177.194 70.4021 176.993 69.9573 177.14 69.5614C177.293 69.1654 177.734 68.9647 178.132 69.1112C182.768 70.8361 185.32 71.7853 190.081 72.6912C191.313 72.9244 192.578 73.0438 193.827 73.0438H193.849C194.765 73.0438 195.692 72.9787 196.603 72.8485C197.372 72.74 198.032 72.4742 198.266 72.2952C198.043 72.0023 197.154 71.27 194.733 70.234C194.34 70.0658 194.16 69.6156 194.329 69.2251C194.498 68.8345 194.951 68.6555 195.343 68.8237C199.624 70.6517 199.995 71.7962 199.837 72.5881C199.57 73.9225 197.274 74.3131 196.821 74.3782C195.84 74.5138 194.842 74.5843 193.855 74.5897H193.827L193.833 74.5789Z" fill="#408F95"/>
<path d="M213.972 71.4707C213.623 71.4707 213.274 71.4652 212.925 71.449C209.549 71.2971 206.168 70.3804 203.153 68.8019C202.776 68.6066 202.629 68.1401 202.831 67.7659C203.027 67.3916 203.496 67.2451 203.872 67.4458C206.692 68.9212 209.849 69.7728 212.996 69.9193C215.303 70.0224 217.599 69.7566 219.829 69.1328C219.605 68.3897 219.164 67.2505 218.395 66.4803C218.155 66.2416 217.762 65.8456 217.141 65.5744C216.977 65.5039 216.852 65.4605 216.513 65.3575L216.273 65.2815C215.575 65.0591 215.008 64.8693 214.632 64.7391C214.228 64.6035 214.016 64.1641 214.152 63.7627C214.294 63.3613 214.73 63.1498 215.134 63.2854C215.505 63.4101 216.055 63.6 216.742 63.817L216.982 63.8929C217.348 64.0068 217.528 64.0665 217.773 64.1695C218.657 64.5601 219.202 65.1025 219.491 65.39C220.871 66.7678 221.394 68.8833 221.52 69.4962C221.601 69.8813 221.372 70.2665 220.996 70.3858C218.711 71.1072 216.35 71.4761 213.978 71.4761L213.972 71.4707Z" fill="#408F95"/>
<path d="M216.873 52.7514C216.464 52.7514 216.12 52.4314 216.099 52.0192C216.077 51.5961 216.41 51.2381 216.835 51.2164C217.8 51.173 218.656 51.0916 219.453 50.9777C219.872 50.9126 220.271 51.2055 220.331 51.6232C220.396 52.0409 220.101 52.4368 219.682 52.4965C218.836 52.6213 217.926 52.708 216.906 52.7514C216.895 52.7514 216.884 52.7514 216.868 52.7514H216.873Z" fill="#408F95"/>
<path d="M219.567 52.5019C219.164 52.5019 218.826 52.1873 218.798 51.7804C218.771 51.3573 219.093 50.9885 219.518 50.9614C222.174 50.7932 223.488 49.9145 223.614 49.1171C223.723 48.4282 222.987 47.2891 220.544 46.329C220.145 46.1717 219.955 45.7269 220.107 45.3309C220.265 44.935 220.713 44.7397 221.111 44.897C223.897 45.9927 225.403 47.6634 225.135 49.3558C224.857 51.1187 222.79 52.2903 219.611 52.4965C219.595 52.4965 219.578 52.4965 219.562 52.4965L219.567 52.5019Z" fill="#408F95"/>
<path d="M186.945 46.3344C186.591 46.3344 186.274 46.0904 186.192 45.7378C186.1 45.3255 186.362 44.9133 186.776 44.8211C194.962 42.9822 203.223 42.4615 211.338 43.2697C213.618 43.4975 215.913 43.8338 218.171 44.2678C218.591 44.3492 218.864 44.7505 218.782 45.1682C218.7 45.5859 218.297 45.8571 217.877 45.7757C215.668 45.3472 213.421 45.0163 211.185 44.7939C203.24 44.002 195.142 44.5119 187.12 46.3182C187.06 46.329 187.005 46.3399 186.951 46.3399L186.945 46.3344Z" fill="#408F95"/>
<path d="M175.225 51.3248C174.975 51.3248 174.724 51.2001 174.576 50.9777C174.342 50.6251 174.44 50.1478 174.8 49.9145C176.158 49.0304 177.587 48.2276 179.043 47.5278C180.439 46.8552 181.889 46.2694 183.362 45.7758C183.705 45.6619 184 45.5696 184.207 45.5046C184.611 45.3744 185.047 45.6022 185.172 46.009C185.298 46.4158 185.074 46.8444 184.665 46.9691C184.469 47.0288 184.191 47.121 183.858 47.2295C182.446 47.7014 181.055 48.271 179.719 48.911C178.318 49.5836 176.949 50.3539 175.651 51.2001C175.52 51.2869 175.373 51.3248 175.231 51.3248H175.225Z" fill="#408F95"/>
<path d="M190.042 47.3759C189.884 47.3759 189.721 47.3108 189.606 47.1807C189.394 46.942 189.415 46.5786 189.655 46.367C189.764 46.2694 189.922 46.1338 190.124 45.9765C190.871 45.3906 191.7 44.9079 192.589 44.5336C193.276 44.2461 193.996 44.0237 194.738 43.8772C195.049 43.8122 195.354 44.0183 195.42 44.3329C195.48 44.6475 195.278 44.9458 194.961 45.0109C194.302 45.1411 193.658 45.3364 193.042 45.5968C192.246 45.9331 191.504 46.367 190.839 46.8877C190.659 47.0288 190.517 47.1481 190.419 47.2349C190.31 47.3325 190.173 47.3814 190.037 47.3814L190.042 47.3759Z" fill="#408F95"/>
<path d="M195.354 46.6436C195.164 46.6436 194.978 46.5514 194.864 46.3778C194.689 46.1121 194.771 45.754 195.038 45.5805C195.153 45.5045 195.322 45.4015 195.529 45.2767C196.303 44.8102 197.127 44.3817 197.988 44.002C198.648 43.7091 199.33 43.4433 200.006 43.2209C200.312 43.1178 200.639 43.2806 200.742 43.5843C200.846 43.8881 200.682 44.2135 200.377 44.3166C199.733 44.5281 199.09 44.7831 198.463 45.0597C197.65 45.4232 196.865 45.8246 196.134 46.2694C195.938 46.3887 195.78 46.4863 195.671 46.5568C195.573 46.6165 195.463 46.6491 195.36 46.6491L195.354 46.6436Z" fill="#408F95"/>
<path d="M201.816 46.6545C201.636 46.6545 201.462 46.5731 201.347 46.4212C201.157 46.1663 201.211 45.8029 201.467 45.613C201.582 45.5316 201.746 45.4123 201.947 45.2713C202.711 44.756 203.54 44.3057 204.412 43.926C205.088 43.6331 205.786 43.389 206.485 43.1992C206.795 43.1178 207.112 43.2968 207.199 43.6006C207.286 43.9098 207.101 44.2244 206.795 44.3112C206.146 44.4902 205.503 44.718 204.881 44.9838C204.074 45.3309 203.311 45.754 202.607 46.226C202.416 46.3507 202.269 46.4646 202.165 46.5406C202.062 46.6165 201.942 46.6545 201.822 46.6545H201.816Z" fill="#408F95"/>
<path d="M214.31 67.4458C214.31 67.4458 214.255 67.4458 214.228 67.4404L209.871 66.8383C209.555 66.7949 209.331 66.502 209.375 66.1874C209.418 65.8728 209.713 65.6504 210.029 65.6938L214.386 66.2959C214.703 66.3393 214.926 66.6322 214.883 66.9468C214.844 67.2343 214.593 67.4458 214.31 67.4458Z" fill="#408F95"/>
<path d="M242.352 66.2851C242.248 66.2851 242.139 66.258 242.041 66.1929C240.749 65.3738 239.598 64.3758 238.633 63.2149C237.357 61.6799 236.151 60.2316 236.304 58.3873C236.462 56.4996 237.951 55.2683 239.522 53.9611C240.82 52.8816 242.287 52.0354 243.884 51.4388C244.184 51.3249 244.517 51.4767 244.631 51.7751C244.746 52.0734 244.593 52.4043 244.293 52.5182C242.815 53.0715 241.463 53.8526 240.263 54.8452C238.764 56.0928 237.58 57.0746 237.46 58.4795C237.346 59.8573 238.306 61.0127 239.522 62.4772C240.411 63.5458 241.463 64.4625 242.657 65.2165C242.93 65.3847 243.006 65.7427 242.837 66.0139C242.728 66.1875 242.537 66.2797 242.346 66.2797L242.352 66.2851Z" fill="#408F95"/>
<path d="M70.4065 78.1536C70.1229 78.1536 69.8557 77.98 69.7521 77.7034C69.5503 77.1826 69.5012 76.6673 69.5939 76.1737C70.0575 73.7599 73.7658 72.9191 76.4706 72.3007C79.2737 71.6607 82.2022 71.4112 85.1743 71.5468C85.5615 71.563 85.8614 71.8939 85.845 72.2791C85.8287 72.6642 85.5015 72.9517 85.1088 72.9462C82.2621 72.8106 79.4646 73.0547 76.7869 73.6623C74.7201 74.1342 71.2627 74.9207 70.9736 76.4341C70.93 76.6673 70.9627 76.9277 71.0663 77.2043C71.2027 77.5623 71.0227 77.9692 70.6573 78.1048C70.5755 78.1373 70.4937 78.1482 70.4065 78.1482V78.1536Z" fill="#408F95"/>
<path d="M78.1174 86.4962C77.9974 86.4962 77.872 86.4636 77.7629 86.3985C76.5904 85.7096 75.4507 84.9611 74.3709 84.18C73.9019 83.8382 73.253 83.3717 72.4404 82.6774C71.6987 82.0482 70.9898 81.3756 70.3245 80.6813C70.2918 80.6487 70.2645 80.6108 70.2372 80.5728C70.21 80.5294 70.1609 80.4589 70.1009 80.3775C69.4029 79.3686 68.7539 78.3217 69.1738 77.5569C69.2938 77.3345 69.5992 76.9656 70.319 76.9927C70.7062 77.0036 71.0116 77.3236 71.0007 77.7088C70.9898 78.0125 70.788 78.2675 70.5099 78.3542C70.6026 78.5821 70.8153 78.9564 71.2516 79.5856C71.3006 79.6561 71.3443 79.7212 71.377 79.77C71.9932 80.4155 72.6585 81.0393 73.3457 81.6197C74.12 82.276 74.7363 82.7262 75.1889 83.0517C76.2305 83.8057 77.3321 84.5271 78.4664 85.1943C78.7991 85.3896 78.9081 85.8181 78.7118 86.149C78.5809 86.3714 78.3464 86.4907 78.1065 86.4907L78.1174 86.4962Z" fill="#408F95"/>
<path d="M96.9701 90.0111C96.6102 90.0111 96.2557 90.0057 95.9012 89.9948C91.135 89.8429 85.8288 88.7581 85.6052 88.7093C83.1894 88.1994 80.7735 87.543 78.4068 86.7565C78.0414 86.6318 77.8396 86.2412 77.965 85.8723C78.0905 85.5089 78.4831 85.3082 78.8539 85.433C81.1662 86.2032 83.5384 86.8433 85.8943 87.3423C85.9433 87.3532 91.3095 88.4489 95.9503 88.6008C97.3846 88.6496 98.8515 88.6008 100.297 88.4489C100.946 88.3838 101.3 88.3296 102.794 88.0963L104.594 87.8197C105.096 87.7437 105.548 87.6678 105.963 87.6027C107.272 87.3912 108.22 87.2338 109.311 87.2176C110.794 87.1905 112.321 87.3857 113.837 87.7871C114.214 87.8848 114.432 88.2699 114.334 88.6442C114.236 89.0185 113.848 89.2354 113.472 89.1378C112.081 88.7689 110.691 88.5899 109.333 88.6116C108.34 88.6279 107.435 88.7744 106.186 88.9805C105.766 89.051 105.308 89.1215 104.801 89.2029L103.007 89.4795C101.524 89.7073 101.12 89.7724 100.438 89.8375C99.2878 89.9514 98.1262 90.0111 96.9756 90.0111H96.9701Z" fill="#408F95"/>
<path d="M116.329 84.4403C116.046 84.4403 115.757 84.4295 115.473 84.4132C115.424 84.4132 115.375 84.4024 115.331 84.3861C114.955 84.2776 114.579 84.1474 114.213 84.001C113.346 83.6538 112.73 83.2741 112.463 83.1114L112.392 83.068C109.605 81.4136 106.72 79.8676 103.814 78.4627C101.136 77.1717 99.0256 76.152 96.1516 75.1756C93.1195 74.145 89.9566 73.4018 86.7445 72.9625C86.3628 72.9082 86.0901 72.5611 86.1446 72.1759C86.1992 71.7962 86.5482 71.5196 86.9354 71.5793C90.2401 72.0241 93.4904 72.7889 96.6097 73.8521C99.56 74.8556 101.709 75.8916 104.424 77.2043C107.369 78.6255 110.292 80.1931 113.112 81.8638L113.204 81.918C113.439 82.0645 113.99 82.4008 114.742 82.7045C115.037 82.8239 115.342 82.9269 115.647 83.0192C116.176 83.0517 116.711 83.0463 117.234 83.0029C117.878 82.9486 118.347 82.8564 118.521 82.8184C120.321 82.455 124.378 81.9777 127.83 81.8258C129.783 81.7444 131.255 81.7716 133 82.1675C133.529 82.2869 134.053 82.4387 134.565 82.6069C134.931 82.7317 135.127 83.1276 135.007 83.4911C134.882 83.8545 134.484 84.0498 134.118 83.9304C133.655 83.7731 133.175 83.6375 132.689 83.529C131.097 83.1656 129.728 83.1385 127.89 83.2199C124.155 83.3826 120.267 83.887 118.816 84.18C118.603 84.2234 118.074 84.3318 117.349 84.3915C117.011 84.4186 116.667 84.4349 116.329 84.4349V84.4403Z" fill="#408F95"/>
<path d="M128.185 100.654C128.037 100.654 127.885 100.605 127.759 100.507L121.046 95.3703C119.835 94.3451 118.674 93.2819 117.567 92.1917C116.738 91.3726 115.914 90.521 115.129 89.6585C114.867 89.371 114.889 88.9316 115.178 88.6713C115.467 88.4109 115.909 88.4326 116.171 88.7201C116.94 89.5663 117.741 90.3962 118.554 91.199C119.634 92.2622 120.773 93.3036 121.93 94.2854L128.615 99.4006C128.921 99.6338 128.981 100.073 128.746 100.382C128.61 100.561 128.397 100.654 128.19 100.654H128.185Z" fill="#408F95"/>
<path d="M128.19 100.654C127.934 100.654 127.683 100.513 127.563 100.268C126.582 98.3103 125.949 96.2599 125.676 94.1715C125.447 92.4195 125.267 91.0363 125.884 89.4252C126.576 87.6081 127.863 86.5992 129.494 85.3245L129.636 85.216C130.972 84.1691 132.466 83.3012 134.075 82.6286C134.434 82.4767 134.843 82.6448 134.991 83.0028C135.138 83.3609 134.974 83.7677 134.614 83.9141C133.126 84.5325 131.741 85.3407 130.503 86.3063L130.361 86.4147C128.845 87.6027 127.749 88.4597 127.192 89.9134C126.702 91.1936 126.849 92.3055 127.067 93.9817C127.318 95.9127 127.907 97.8166 128.817 99.6338C128.992 99.9809 128.85 100.399 128.501 100.572C128.403 100.621 128.294 100.648 128.19 100.648V100.654Z" fill="#408F95"/>
<path d="M85.0974 84.1529C84.841 84.1529 84.5738 84.1366 84.3012 84.1041C82.3488 83.8545 81.0455 82.7968 80.4402 82.1893C80.1675 81.9126 80.1675 81.4733 80.4456 81.2021C80.7237 80.9308 81.1655 80.9308 81.4381 81.2075C81.918 81.6902 82.9433 82.5256 84.4811 82.7209C86.0135 82.9216 87.1315 82.3574 87.8731 81.9832C87.9822 81.9289 88.0694 81.8801 88.1403 81.8421C87.7968 81.6685 87.1751 81.4678 86.2862 81.2292C84.8029 80.8332 83.2268 80.6325 81.5963 80.6325C81.2091 80.6325 80.8928 80.3179 80.8928 79.9328C80.8928 79.5476 81.2091 79.233 81.5963 79.233C83.3523 79.233 85.0483 79.45 86.6516 79.8785C88.3694 80.3396 89.7873 80.8007 89.7818 81.8638C89.7818 82.5039 89.1656 82.8999 88.5057 83.2308C87.8295 83.5671 86.657 84.1583 85.0974 84.1583V84.1529Z" fill="#408F95"/>
<path d="M77.3425 84.1095C77.0753 84.1095 76.819 83.9576 76.699 83.6973C76.5409 83.3447 76.699 82.9324 77.0535 82.7751C78.335 82.2001 79.4366 81.3865 80.3201 80.3559C80.7891 79.808 81.1926 79.2005 81.5198 78.555C81.6943 78.2078 82.1142 78.0722 82.4633 78.2458C82.8123 78.4194 82.9486 78.8371 82.7741 79.1842C82.3978 79.9328 81.9288 80.6325 81.3889 81.2672C80.3692 82.4605 79.104 83.3989 77.6261 84.0553C77.5334 84.0987 77.4352 84.1149 77.3371 84.1149L77.3425 84.1095Z" fill="#408F95"/>
<path d="M74.8671 76.8843C74.7526 76.8843 74.6381 76.868 74.5236 76.8409C73.7983 76.6565 73.3565 75.9134 73.5474 75.1919C73.6401 74.8393 73.8582 74.5464 74.1745 74.3674C74.4908 74.183 74.8562 74.1342 75.2052 74.221C75.5597 74.3132 75.8542 74.5302 76.0396 74.8448C76.225 75.154 76.2741 75.5228 76.1868 75.87C76.0941 76.2171 75.876 76.5155 75.5597 76.6945C75.347 76.8192 75.1125 76.8843 74.8726 76.8843H74.8671ZM74.8671 75.4903C74.8671 75.4903 74.8289 75.5065 74.8235 75.5228C74.8235 75.5445 74.8344 75.5716 74.8562 75.5771C74.8835 75.5825 74.9053 75.5662 74.9107 75.5445C74.9162 75.5228 74.9053 75.4957 74.878 75.4903C74.878 75.4903 74.878 75.4903 74.8726 75.4903H74.8671Z" fill="#408F95"/>
<path d="M91.8323 92.7016C91.6087 92.7016 91.4233 92.6853 91.3033 92.6744C90.5944 92.6039 89.88 92.4846 89.1874 92.3164C88.2385 92.0886 87.3005 91.7632 86.4062 91.3618C83.1614 89.8918 81.4218 88.7147 78.5369 86.7674C78.2152 86.5504 78.1334 86.1164 78.3515 85.7964C78.5697 85.4764 79.0059 85.395 79.3277 85.612C82.2453 87.581 83.854 88.6659 86.9897 90.0925C87.8023 90.4613 88.6584 90.7542 89.5201 90.9604C90.1472 91.1122 90.7962 91.2207 91.4397 91.2858C91.8378 91.3238 92.225 91.2912 92.454 91.2424C92.2522 90.9332 91.6905 90.3311 90.4799 89.4253C90.169 89.192 90.109 88.7581 90.3381 88.4489C90.5726 88.1397 91.0089 88.0801 91.3197 88.3079C94.0518 90.3474 94.1282 91.2478 93.8446 91.8554C93.512 92.5714 92.5085 92.7016 91.8269 92.7016H91.8323Z" fill="#408F95"/>
<path d="M107.609 94.0088C106.028 94.0088 104.468 93.7864 102.947 93.3471C100.607 92.669 98.3984 91.454 96.5551 89.8375C96.2661 89.5826 96.2388 89.1432 96.4952 88.8503C96.7515 88.5628 97.1932 88.5357 97.4877 88.7906C99.1782 90.2715 101.201 91.3835 103.345 92.0073C104.866 92.4466 106.437 92.6473 108.018 92.6094C107.98 92.0778 107.855 91.3238 107.506 90.7488C107.38 90.5427 107.189 90.2281 106.824 89.9515C106.715 89.8701 106.633 89.8213 106.442 89.7074L106.284 89.6151C105.837 89.3439 105.471 89.1161 105.231 88.9642C104.904 88.7581 104.812 88.3242 105.019 87.9987C105.226 87.6732 105.662 87.581 105.99 87.7871C106.224 87.939 106.573 88.156 107.015 88.4218L107.167 88.514C107.424 88.6713 107.533 88.7364 107.68 88.8449C108.253 89.2788 108.558 89.7833 108.705 90.0274C109.452 91.2533 109.452 92.8426 109.436 93.2983C109.425 93.6563 109.142 93.9437 108.782 93.9709C108.389 93.998 108.002 94.0088 107.609 94.0088Z" fill="#408F95"/>
<path d="M110.947 81.3322C110.947 81.3322 110.903 81.3322 110.882 81.3322C110.265 81.278 109.616 81.1804 108.897 81.0447C108.515 80.9688 108.269 80.6054 108.34 80.2257C108.417 79.846 108.787 79.6019 109.164 79.6724C109.84 79.8026 110.44 79.8894 111.007 79.9436C111.394 79.9762 111.678 80.3179 111.645 80.703C111.612 81.0664 111.307 81.3377 110.947 81.3377V81.3322Z" fill="#408F95"/>
<path d="M112.304 81.4624C111.846 81.4624 111.35 81.419 110.821 81.3268C110.439 81.2617 110.183 80.8983 110.254 80.5186C110.319 80.1389 110.685 79.8839 111.067 79.9544C112.85 80.269 113.864 79.911 114.06 79.4554C114.24 79.0323 113.815 78.1373 112.457 77.1826C112.141 76.9602 112.065 76.5263 112.288 76.2117C112.512 75.8971 112.948 75.8211 113.264 76.0435C115.075 77.3182 115.855 78.7936 115.353 79.9924C114.949 80.9525 113.848 81.4678 112.304 81.4678V81.4624Z" fill="#408F95"/>
<path d="M111.007 76.4123C110.908 76.4123 110.81 76.3907 110.712 76.3473C109.256 75.6801 107.756 75.078 106.246 74.5518C100.88 72.675 95.1863 71.6715 89.3294 71.5739C88.9422 71.5684 88.6313 71.2484 88.6368 70.8633C88.6422 70.4782 88.9749 70.169 89.3512 70.1744C95.3608 70.272 101.201 71.3026 106.709 73.2283C108.258 73.7707 109.801 74.3891 111.296 75.0725C111.65 75.2353 111.803 75.6475 111.639 76.0001C111.519 76.255 111.268 76.4069 111.001 76.4069L111.007 76.4123Z" fill="#408F95"/>
<path d="M80.3701 73.0709C80.081 73.0709 79.8084 72.8919 79.7102 72.6045C79.5793 72.241 79.7702 71.8396 80.1356 71.7149C81.2317 71.3243 82.366 71.0097 83.5058 70.7656C84.591 70.5324 85.7089 70.3696 86.8214 70.272C87.0832 70.2503 87.3013 70.234 87.454 70.2232C87.8467 70.1961 88.1739 70.489 88.2011 70.8741C88.223 71.2592 87.9339 71.5901 87.5467 71.6172C87.3995 71.6281 87.1923 71.6389 86.9469 71.6606C85.8944 71.7528 84.8364 71.9101 83.8057 72.1325C82.7259 72.3604 81.6516 72.6641 80.61 73.033C80.5337 73.0601 80.4519 73.0709 80.3755 73.0709H80.3701Z" fill="#408F95"/>
<path d="M91.5165 72.2736C91.3802 72.2736 91.2438 72.1977 91.1729 72.0675C91.0748 71.8776 91.1457 71.6498 91.3365 71.5468C91.4292 71.4979 91.5601 71.4329 91.7292 71.3569C92.3454 71.0803 92.9998 70.8796 93.6815 70.7711C94.205 70.6843 94.7395 70.6572 95.2793 70.6789C95.492 70.6897 95.6556 70.8687 95.6502 71.0803C95.6393 71.2918 95.4648 71.4545 95.2466 71.4491C94.7667 71.4274 94.2814 71.4545 93.8069 71.5305C93.1961 71.6281 92.6072 71.8071 92.0509 72.0566C91.9037 72.1217 91.7837 72.1814 91.7019 72.2248C91.6419 72.2573 91.5819 72.2682 91.522 72.2682L91.5165 72.2736Z" fill="#408F95"/>
<path d="M95.099 73.0167C94.9408 73.0167 94.7881 72.9191 94.7336 72.7564C94.6627 72.5557 94.7718 72.3387 94.9735 72.2682C95.0662 72.2356 95.2026 72.1922 95.3662 72.138C95.9824 71.9481 96.6259 71.7854 97.2858 71.6661C97.7929 71.5739 98.311 71.5033 98.8182 71.46C99.0254 71.4383 99.2163 71.601 99.2381 71.8125C99.2544 72.0241 99.0963 72.2085 98.8836 72.2302C98.4037 72.2736 97.9129 72.3387 97.4276 72.4255C96.8004 72.5394 96.1842 72.6913 95.6007 72.8703C95.4425 72.9191 95.3171 72.9625 95.2298 72.9896C95.1862 73.0059 95.148 73.0113 95.1044 73.0113L95.099 73.0167Z" fill="#408F95"/>
<path d="M99.5815 74.1124C99.4288 74.1124 99.287 74.0256 99.227 73.8792C99.1452 73.6839 99.2379 73.4561 99.4342 73.3747C99.5269 73.3367 99.6633 73.2825 99.8269 73.2228C100.443 72.995 101.092 72.8214 101.757 72.7021C102.275 72.6153 102.799 72.5611 103.317 72.5448C103.53 72.5448 103.71 72.7075 103.715 72.9191C103.721 73.1306 103.552 73.3096 103.339 73.3151C102.859 73.3313 102.368 73.3801 101.888 73.4615C101.267 73.57 100.667 73.7327 100.094 73.9443C99.9414 73.9985 99.816 74.0528 99.7342 74.0853C99.6851 74.107 99.636 74.1178 99.5869 74.1178L99.5815 74.1124Z" fill="#408F95"/>
<path d="M104.73 90.6403C104.681 90.6403 104.632 90.6295 104.588 90.6132L101.665 89.4632C101.469 89.3873 101.37 89.1595 101.447 88.9642C101.523 88.7689 101.752 88.6713 101.949 88.7472L104.872 89.8972C105.068 89.9731 105.166 90.2009 105.09 90.3962C105.03 90.5481 104.882 90.6403 104.73 90.6403Z" fill="#408F95"/>
<path d="M124.384 94.7356C124.231 94.7356 124.078 94.676 123.964 94.5567C123.189 93.7593 122.557 92.8588 122.077 91.877C121.433 90.5698 120.828 89.333 121.275 88.0095C121.728 86.6588 122.998 86.0405 124.345 85.3841C125.447 84.8471 126.625 84.5 127.857 84.3481C128.179 84.3101 128.463 84.5325 128.501 84.8525C128.539 85.1672 128.316 85.4547 127.994 85.4926C126.898 85.6228 125.84 85.9374 124.858 86.4148C123.642 87.0114 122.677 87.4779 122.377 88.3729C122.082 89.2462 122.54 90.1847 123.124 91.3672C123.549 92.2405 124.116 93.0433 124.804 93.7538C125.027 93.9817 125.016 94.3505 124.787 94.5675C124.673 94.676 124.531 94.7302 124.384 94.7302V94.7356Z" fill="#408F95"/>
<path d="M21.2489 12.7742C21.1398 12.7742 21.0307 12.7471 20.9271 12.6983C18.3968 11.3965 15.7464 10.458 13.0579 9.90477C10.9801 9.47625 7.51178 8.76024 6.61197 10.0187C6.47564 10.214 6.39384 10.4635 6.37202 10.7564C6.34476 11.1415 6.00665 11.429 5.62491 11.4073C5.23772 11.3802 4.94323 11.0493 4.9705 10.6642C5.00867 10.1055 5.17773 9.61728 5.46676 9.21045C6.89555 7.20888 10.6202 7.97913 13.3415 8.53784C16.1554 9.11824 18.9203 10.1 21.5706 11.4615C21.9142 11.6405 22.0505 12.0582 21.8706 12.4C21.7451 12.6386 21.4997 12.7797 21.2489 12.7797V12.7742Z" fill="#408F95"/>
<path d="M9.19135 22.1854C8.96776 22.1854 8.74963 22.0823 8.61329 21.8871C7.83346 20.7751 7.11361 19.6251 6.4592 18.4643C6.17563 17.9599 5.78298 17.2655 5.3358 16.3C4.9268 15.4213 4.56142 14.5154 4.24512 13.6041C4.22876 13.5607 4.21786 13.5173 4.2124 13.4685C4.20695 13.4143 4.19059 13.3329 4.17423 13.2299C3.96155 12.0257 3.80885 10.8052 4.51234 10.279C4.71412 10.1271 5.15039 9.92102 5.79389 10.2411C6.14291 10.4092 6.28469 10.8323 6.11564 11.174C5.9793 11.4453 5.68482 11.5971 5.40124 11.5592C5.39579 11.8033 5.42851 12.2372 5.55939 12.9858C5.57575 13.0726 5.58666 13.1485 5.59757 13.2082C5.89205 14.0544 6.23016 14.8951 6.6119 15.7088C7.03726 16.6255 7.41355 17.2872 7.68622 17.7754C8.31881 18.8928 9.01684 20.0048 9.76941 21.0843C9.993 21.3989 9.9112 21.8382 9.5949 22.0552C9.47493 22.142 9.33314 22.18 9.19681 22.18L9.19135 22.1854Z" fill="#408F95"/>
<path d="M40.3792 39.3262C40.2211 39.3262 40.0629 39.272 39.932 39.1635C38.825 38.2522 37.6307 37.5145 36.3928 36.9721C35.4875 36.5761 34.6041 36.3374 33.3771 36.0066C32.9681 35.8927 32.5209 35.7733 32.0246 35.6323L30.2686 35.1387C28.8289 34.7319 28.4418 34.6234 27.7873 34.401C26.3476 33.9128 24.9407 33.327 23.5991 32.6652C19.3291 30.5551 14.961 27.3656 14.7756 27.23C12.796 25.7655 10.8709 24.1653 9.04949 22.4729C8.76591 22.2071 8.74955 21.7677 9.01677 21.4857C9.28398 21.2036 9.72571 21.1873 10.0093 21.4531C11.7925 23.1075 13.674 24.6752 15.6099 26.1072C15.6535 26.1397 20.0708 29.3564 24.2263 31.4122C25.5133 32.0468 26.8603 32.6055 28.24 33.0774C28.8562 33.2836 29.1998 33.3812 30.6449 33.788L32.4009 34.2816C32.8917 34.4227 33.3334 34.542 33.7425 34.6505C35.024 34.9976 35.9456 35.2526 36.949 35.6865C38.3124 36.2778 39.6158 37.086 40.821 38.0787C41.1209 38.3227 41.1591 38.7621 40.9137 39.0605C40.7773 39.2286 40.5755 39.3154 40.3738 39.3154L40.3792 39.3262Z" fill="#408F95"/>
<path d="M61.3638 43.183C61.1893 43.183 61.0202 43.1179 60.8839 42.9931C60.524 42.6568 60.1477 42.3368 59.755 42.0384C58.4626 41.0512 57.2247 40.46 55.5232 39.7711C52.0548 38.3716 48.3138 37.2216 46.8741 36.8853C46.6614 36.8365 46.1325 36.7118 45.4508 36.4677C44.8618 36.2561 44.2892 36.0012 43.7384 35.7028C43.6948 35.6811 43.6566 35.654 43.6185 35.6215C43.324 35.3665 43.0349 35.0953 42.7623 34.8078C42.1242 34.1352 41.7152 33.5331 41.5462 33.2727L41.4971 33.2022C39.6593 30.5497 37.6797 27.9406 35.6238 25.4617C33.726 23.1781 32.2372 21.3772 30.0395 19.2997C27.7164 17.1083 25.1533 15.1176 22.4157 13.3926C22.0885 13.1865 21.9903 12.7526 22.1975 12.4271C22.4048 12.1016 22.841 12.004 23.1682 12.2101C25.9822 13.9839 28.6216 16.0288 31.0102 18.2854C33.2679 20.4225 34.7894 22.2505 36.709 24.5667C38.7976 27.0836 40.799 29.7198 42.6587 32.4103L42.7186 32.4971C42.8713 32.7249 43.2313 33.2565 43.7875 33.8477C44.0056 34.081 44.2401 34.3034 44.4801 34.5095C44.9436 34.759 45.4344 34.976 45.9307 35.155C46.536 35.3719 46.9996 35.4804 47.1795 35.5238C48.9682 35.9415 52.8565 37.1837 56.0576 38.4801C57.8682 39.2124 59.1933 39.847 60.6167 40.9319C61.0475 41.2628 61.4619 41.6153 61.8546 41.9788C62.1382 42.2446 62.1491 42.6839 61.8819 42.966C61.7455 43.1124 61.5601 43.183 61.3692 43.183H61.3638Z" fill="#408F95"/>
<path d="M48.7887 55.8C48.5378 55.8 48.2924 55.6643 48.167 55.4257L44.2133 47.9781C43.5425 46.5406 42.9317 45.0978 42.3809 43.6495C41.9665 42.5646 41.5793 41.4526 41.2303 40.3352C41.1158 39.9664 41.3175 39.5758 41.6884 39.4619C42.0592 39.348 42.4518 39.5487 42.5664 39.9176C42.9099 41.0078 43.2917 42.0981 43.6952 43.1559C44.2351 44.5716 44.8295 45.9874 45.473 47.3597L49.4104 54.7748C49.5903 55.1165 49.4594 55.5396 49.1159 55.7186C49.0123 55.7728 48.8977 55.8 48.7887 55.8Z" fill="#408F95"/>
<path d="M48.7835 55.7999C48.4072 55.7999 48.0963 55.5016 48.08 55.1219C48.0091 52.9359 48.2927 50.8096 48.9198 48.7972C49.4488 47.1102 49.8632 45.7758 51.0957 44.5716C52.4863 43.2047 54.0787 42.825 56.0965 42.3422L56.271 42.2988C57.9234 41.9028 59.6466 41.7293 61.3863 41.7889C61.7734 41.7998 62.0788 42.1252 62.0625 42.5104C62.0516 42.8955 61.7353 43.2047 61.3372 43.183C59.723 43.1287 58.1306 43.286 56.5982 43.6549L56.4237 43.6983C54.5477 44.1485 53.1953 44.474 52.0773 45.5697C51.0957 46.5298 50.763 47.5984 50.2613 49.2148C49.6778 51.0754 49.4161 53.0498 49.487 55.0785C49.4979 55.4636 49.1979 55.7891 48.8053 55.7999C48.7998 55.7999 48.7889 55.7999 48.7835 55.7999Z" fill="#408F95"/>
<path d="M19.1006 23.4601C18.179 23.4601 16.8647 23.3353 15.5232 22.5C13.8544 21.464 13.1128 19.9614 12.8183 19.1586C12.6874 18.7952 12.8728 18.3938 13.2382 18.2636C13.6036 18.1334 14.0071 18.3179 14.138 18.6813C14.3725 19.3159 14.956 20.5039 16.2703 21.3175C17.5791 22.1311 18.8334 22.0823 19.6623 22.0498C19.7823 22.0498 19.8804 22.0389 19.9622 22.0281C19.7168 21.7297 19.2424 21.285 18.5334 20.6991C17.3501 19.7227 16.0031 18.8874 14.5197 18.2148C14.1653 18.0521 14.0126 17.6398 14.1762 17.2872C14.3343 16.9347 14.7542 16.7828 15.1087 16.9455C16.7011 17.6724 18.1572 18.5728 19.4332 19.6251C20.802 20.7534 21.8982 21.7677 21.451 22.7278C21.1783 23.3136 20.4258 23.4167 19.7168 23.4438C19.5423 23.4493 19.3351 23.4601 19.106 23.4601H19.1006Z" fill="#408F95"/>
<path d="M9.57883 19.6902C9.54611 19.6902 9.51884 19.6902 9.48612 19.6902C9.09893 19.6902 8.78809 19.3702 8.78809 18.9851C8.78809 18.5999 9.10438 18.2907 9.49157 18.2907C9.51884 18.2907 9.55156 18.2907 9.57883 18.2907C10.9531 18.2907 12.2673 18.0087 13.4835 17.4446C14.1379 17.1408 14.7596 16.7557 15.3322 16.3054C15.6375 16.0614 16.0793 16.1102 16.3192 16.4139C16.5592 16.7177 16.5155 17.1571 16.2102 17.3957C15.5503 17.9219 14.8359 18.3613 14.0779 18.7138C12.6764 19.3593 11.1658 19.6902 9.58428 19.6902H9.57883Z" fill="#408F95"/>
<path d="M10.5328 12.1559C10.2328 12.1559 9.92745 12.0583 9.67659 11.8521C9.39302 11.6243 9.21851 11.2989 9.18033 10.9409C9.14216 10.5829 9.25123 10.2303 9.48027 9.94821C9.70931 9.66614 10.0365 9.49256 10.3964 9.45459C10.7564 9.41662 11.1108 9.51968 11.3944 9.75293C11.678 9.98075 11.8525 10.3062 11.8907 10.6642C11.9288 11.0222 11.8198 11.3748 11.5907 11.6569C11.3235 11.9877 10.9309 12.1559 10.5328 12.1559ZM10.5328 10.7619C10.5328 10.7619 10.5055 10.7619 10.5001 10.7781C10.4891 10.7944 10.4891 10.8269 10.5055 10.8378C10.5219 10.8541 10.5546 10.8486 10.5655 10.8324C10.5764 10.8161 10.5764 10.7836 10.56 10.7727C10.5546 10.7673 10.5437 10.7619 10.5328 10.7619Z" fill="#408F95"/>
<path d="M20.1146 33.7934C19.3893 33.7934 18.5931 33.3758 18.2986 33.2022C17.6824 32.8442 17.0879 32.4428 16.5262 32.0034C15.7573 31.4013 15.0375 30.7178 14.394 29.9801C12.0599 27.2951 10.9692 25.5105 9.16416 22.5434C8.96238 22.2125 9.07145 21.784 9.39865 21.5833C9.73131 21.3826 10.1621 21.4911 10.3639 21.8165C12.1908 24.8162 13.1997 26.4706 15.4574 29.0634C16.0409 29.736 16.6953 30.3544 17.3933 30.9023C17.9005 31.3037 18.4458 31.6671 19.0075 31.9926C19.3565 32.1933 19.7165 32.3234 19.951 32.3723C19.8964 32.0088 19.6401 31.2277 18.9148 29.9042C18.7294 29.5679 18.8548 29.1394 19.1984 28.9549C19.5365 28.7705 19.9673 28.8953 20.1527 29.237C21.7833 32.2258 21.4779 33.072 20.9653 33.5114C20.7253 33.7121 20.4309 33.788 20.12 33.788L20.1146 33.7934Z" fill="#408F95"/>
<path d="M33.8955 41.6587C33.8137 41.6587 33.7319 41.6424 33.6501 41.6153C31.796 40.921 30.1 39.9175 28.6112 38.632C26.768 37.0481 25.2683 35.0248 24.2703 32.7954C24.1122 32.4428 24.2703 32.0306 24.6248 31.8733C24.9793 31.716 25.3937 31.8733 25.5519 32.2258C26.468 34.2762 27.8423 36.1259 29.5274 37.5742C30.7217 38.6048 32.0632 39.4348 33.5247 40.0585C33.7101 39.5541 33.9119 38.8272 33.8356 38.1546C33.8083 37.9159 33.7647 37.5525 33.552 37.1457C33.4865 37.0264 33.432 36.9504 33.3066 36.766L33.203 36.6141C32.9085 36.1802 32.674 35.8222 32.5213 35.5835C32.3141 35.258 32.4068 34.8241 32.734 34.618C33.0612 34.4118 33.492 34.504 33.7047 34.8295C33.8519 35.0628 34.081 35.4099 34.37 35.833L34.4736 35.9849C34.6427 36.2344 34.7136 36.3375 34.7954 36.5002C35.1335 37.1348 35.1989 37.7152 35.2316 37.9973C35.3952 39.4131 34.7354 40.8613 34.5281 41.2736C34.4082 41.5177 34.1573 41.6587 33.901 41.6587H33.8955Z" fill="#408F95"/>
<path d="M41.197 31.0921C41.077 31.0921 40.9571 31.065 40.848 30.9999C40.3136 30.6961 39.7628 30.3381 39.1629 29.915C38.8466 29.6926 38.7757 29.2533 38.9993 28.9387C39.2229 28.6241 39.6646 28.5535 39.9809 28.7759C40.5371 29.1719 41.0498 29.5028 41.546 29.7849C41.8841 29.9747 41.9986 30.4032 41.8078 30.7395C41.6769 30.9619 41.4424 31.0921 41.197 31.0921Z" fill="#408F95"/>
<path d="M43.9618 32.1715C43.0566 32.1715 41.9605 31.7647 40.7989 30.9673C40.4771 30.7504 40.4008 30.311 40.6189 29.9964C40.8371 29.6764 41.2788 29.6004 41.5951 29.8174C43.0839 30.8372 44.1582 30.9402 44.5235 30.5985C44.8617 30.2839 44.8507 29.2967 44.0164 27.8701C43.8201 27.5392 43.9346 27.1107 44.2727 26.9154C44.6053 26.7201 45.0362 26.834 45.2325 27.1703C46.345 29.0797 46.4377 30.7449 45.4779 31.6237C45.0798 31.9871 44.5617 32.1715 43.9618 32.1715Z" fill="#408F95"/>
<path d="M43.3185 26.6442C43.1222 26.6442 42.9259 26.5629 42.7841 26.4001C41.737 25.1905 40.63 24.0189 39.4793 22.9177C35.3893 18.9851 30.6339 15.7197 25.3496 13.2028C25.0006 13.0346 24.8533 12.617 25.0169 12.2698C25.186 11.9226 25.6004 11.7762 25.9549 11.9389C31.3756 14.5155 36.2564 17.8731 40.4555 21.9088C41.6334 23.0425 42.7786 24.2467 43.8475 25.4889C44.0983 25.7818 44.0656 26.2211 43.7711 26.4761C43.6402 26.59 43.4766 26.6442 43.313 26.6442H43.3185Z" fill="#408F95"/>
<path d="M23.9537 12.541C23.8719 12.541 23.7846 12.5248 23.7028 12.4922C23.5665 12.438 23.3702 12.3675 23.1357 12.2861C22.1377 11.9335 21.1125 11.6406 20.0818 11.4128C19.002 11.1741 17.9004 11.006 16.7988 10.9083C16.4116 10.8758 16.1281 10.534 16.1608 10.1489C16.1935 9.76379 16.5316 9.48173 16.9242 9.51427C18.0858 9.61734 19.2474 9.79634 20.3872 10.0459C21.4724 10.2845 22.5521 10.5937 23.6047 10.968C23.8501 11.0548 24.0573 11.1307 24.2045 11.1904C24.5644 11.326 24.7499 11.7328 24.6081 12.0908C24.499 12.3675 24.2372 12.541 23.9537 12.541Z" fill="#408F95"/>
<path d="M30.9451 15.5732C30.8852 15.5732 30.8252 15.5569 30.7706 15.5298C30.3398 15.3128 29.8926 15.1392 29.4291 15.009C28.8347 14.8463 28.2184 14.7649 27.6131 14.7595C27.4495 14.7595 27.3132 14.7595 27.2259 14.7704C27.0023 14.7812 26.8278 14.6185 26.8169 14.4069C26.806 14.1954 26.9696 14.011 27.1823 14.0001C27.2859 13.9947 27.4386 13.9893 27.6186 13.9893C28.2948 13.9893 28.9765 14.0815 29.6363 14.2659C30.1489 14.4069 30.6507 14.6022 31.1251 14.8409C31.316 14.9385 31.3923 15.1718 31.2942 15.3562C31.2233 15.4918 31.0924 15.5677 30.9506 15.5677L30.9451 15.5732Z" fill="#408F95"/>
<path d="M33.8787 17.7809C33.8351 17.7809 33.7914 17.7755 33.7478 17.7592C33.2897 17.5965 32.8207 17.4555 32.3408 17.3307C31.7246 17.1734 31.1029 17.0595 30.4921 16.9781C30.3285 16.9564 30.1976 16.9456 30.1049 16.9347C29.8923 16.913 29.7341 16.7286 29.7559 16.5171C29.7777 16.3055 29.9686 16.1536 30.1758 16.1699C30.274 16.1807 30.4158 16.1916 30.5848 16.2133C31.2229 16.2947 31.8773 16.4194 32.5262 16.5821C33.028 16.7069 33.5242 16.8588 34.0041 17.0324C34.2059 17.1029 34.3095 17.3253 34.2386 17.526C34.1841 17.6833 34.0314 17.7809 33.8732 17.7809H33.8787Z" fill="#408F95"/>
<path d="M37.5053 20.6123C37.4562 20.6123 37.4071 20.6015 37.3526 20.5798C36.9054 20.3899 36.4419 20.238 35.9729 20.1133C35.3621 19.956 34.7459 19.8529 34.1406 19.8095C33.977 19.7987 33.8461 19.7933 33.7534 19.7878C33.5407 19.7824 33.3716 19.6034 33.3771 19.3919C33.3825 19.1803 33.557 19.0176 33.7752 19.0176C33.8733 19.0176 34.0206 19.0284 34.1951 19.0393C34.8495 19.0881 35.5148 19.1966 36.1692 19.3702C36.6709 19.5003 37.1726 19.6685 37.6525 19.8746C37.8489 19.956 37.9416 20.1838 37.8598 20.3791C37.7998 20.5255 37.6525 20.6123 37.5053 20.6123Z" fill="#408F95"/>
<path d="M31.5172 36.945C31.4136 36.945 31.3154 36.907 31.2391 36.8256L29.0632 34.5691C28.9159 34.4173 28.9214 34.1732 29.0741 34.0267C29.2268 33.8802 29.4722 33.8857 29.6194 34.0376L31.7953 36.2941C31.9426 36.4459 31.9371 36.69 31.7844 36.8365C31.7081 36.907 31.6153 36.945 31.5172 36.945Z" fill="#408F95"/>
<path d="M47.7576 48.835C47.5176 48.835 47.2941 48.6886 47.2123 48.4499C46.8414 47.403 46.6451 46.3236 46.6178 45.2333C46.5851 43.7741 46.5469 42.4018 47.5067 41.382C48.4829 40.346 49.8953 40.308 51.395 40.2646C52.622 40.2321 53.8381 40.4056 55.0215 40.7799C55.3269 40.8775 55.496 41.203 55.3978 41.5068C55.2996 41.8105 54.9724 41.9787 54.667 41.881C53.6145 41.5447 52.5184 41.3929 51.4277 41.42C50.0698 41.4579 49.001 41.4851 48.352 42.174C47.7194 42.8466 47.7467 43.888 47.774 45.2061C47.7958 46.1771 47.9757 47.1426 48.3029 48.0702C48.4065 48.3685 48.2484 48.6994 47.9485 48.8025C47.883 48.8242 47.8176 48.835 47.7576 48.835Z" fill="#408F95"/>
</g>
<defs>
<filter id="filter0_d_2638_34362" x="0" y="0" width="309" height="146" filterUnits="userSpaceOnUse" color-interpolation-filters="sRGB">
<feFlood flood-opacity="0" result="BackgroundImageFix"/>
<feColorMatrix in="SourceAlpha" type="matrix" values="0 0 0 0 0 0 0 0 0 0 0 0 0 0 0 0 0 0 127 0" result="hardAlpha"/>
<feOffset dy="4"/>
<feGaussianBlur stdDeviation="2"/>
<feComposite in2="hardAlpha" operator="out"/>
<feColorMatrix type="matrix" values="0 0 0 0 0 0 0 0 0 0 0 0 0 0 0 0 0 0 0.25 0"/>
<feBlend mode="normal" in2="BackgroundImageFix" result="effect1_dropShadow_2638_34362"/>
<feBlend mode="normal" in="SourceGraphic" in2="effect1_dropShadow_2638_34362" result="shape"/>
</filter>
<clipPath id="clip0_2638_34362">
<rect width="301" height="138" fill="white" transform="translate(4)"/>
</clipPath>
</defs>
</svg>
